# Toy F-35 Lightning II 3D Model
mtllib toy_f35_jet.mtl

v 0.0000 -0.0400 7.6000
v 0.0520 -0.0100 7.5000
v 0.0000 0.0000 7.5000
v 0.0000 -0.0400 7.6000
v 0.0800 -0.0400 7.5000
v 0.0520 -0.0100 7.5000
v 0.0000 -0.0400 7.6000
v 0.0520 -0.0700 7.5000
v 0.0800 -0.0400 7.5000
v 0.0000 -0.0400 7.6000
v 0.0000 -0.0800 7.5000
v 0.0520 -0.0700 7.5000
v 0.0000 -0.0400 7.6000
v -0.0520 -0.0700 7.5000
v 0.0000 -0.0800 7.5000
v 0.0000 -0.0400 7.6000
v -0.0800 -0.0400 7.5000
v -0.0520 -0.0700 7.5000
v 0.0000 -0.0400 7.6000
v -0.0520 -0.0100 7.5000
v -0.0800 -0.0400 7.5000
v 0.0000 -0.0400 7.6000
v 0.0000 0.0000 7.5000
v -0.0520 -0.0100 7.5000
v 0.0000 0.0000 7.5000
v 0.0520 -0.0100 7.5000
v 0.5525 0.2625 6.8000
v 0.0000 0.0000 7.5000
v 0.5525 0.2625 6.8000
v 0.0000 0.3500 6.8000
v 0.0520 -0.0100 7.5000
v 0.0800 -0.0400 7.5000
v 0.8500 0.0000 6.8000
v 0.0520 -0.0100 7.5000
v 0.8500 0.0000 6.8000
v 0.5525 0.2625 6.8000
v 0.0800 -0.0400 7.5000
v 0.0520 -0.0700 7.5000
v 0.5525 -0.2625 6.8000
v 0.0800 -0.0400 7.5000
v 0.5525 -0.2625 6.8000
v 0.8500 0.0000 6.8000
v 0.0520 -0.0700 7.5000
v 0.0000 -0.0800 7.5000
v 0.0000 -0.3500 6.8000
v 0.0520 -0.0700 7.5000
v 0.0000 -0.3500 6.8000
v 0.5525 -0.2625 6.8000
v 0.0000 -0.0800 7.5000
v -0.0520 -0.0700 7.5000
v -0.5525 -0.2625 6.8000
v 0.0000 -0.0800 7.5000
v -0.5525 -0.2625 6.8000
v 0.0000 -0.3500 6.8000
v -0.0520 -0.0700 7.5000
v -0.0800 -0.0400 7.5000
v -0.8500 0.0000 6.8000
v -0.0520 -0.0700 7.5000
v -0.8500 0.0000 6.8000
v -0.5525 -0.2625 6.8000
v -0.0800 -0.0400 7.5000
v -0.0520 -0.0100 7.5000
v -0.5525 0.2625 6.8000
v -0.0800 -0.0400 7.5000
v -0.5525 0.2625 6.8000
v -0.8500 0.0000 6.8000
v -0.0520 -0.0100 7.5000
v 0.0000 0.0000 7.5000
v 0.0000 0.3500 6.8000
v -0.0520 -0.0100 7.5000
v 0.0000 0.3500 6.8000
v -0.5525 0.2625 6.8000
v 0.0000 0.3500 6.8000
v 0.5525 0.2625 6.8000
v 1.0725 0.5875 5.5000
v 0.0000 0.3500 6.8000
v 1.0725 0.5875 5.5000
v 0.0000 0.7500 5.5000
v 0.5525 0.2625 6.8000
v 0.8500 0.0000 6.8000
v 1.6500 0.1000 5.5000
v 0.5525 0.2625 6.8000
v 1.6500 0.1000 5.5000
v 1.0725 0.5875 5.5000
v 0.8500 0.0000 6.8000
v 0.5525 -0.2625 6.8000
v 1.0725 -0.4625 5.5000
v 0.8500 0.0000 6.8000
v 1.0725 -0.4625 5.5000
v 1.6500 0.1000 5.5000
v 0.5525 -0.2625 6.8000
v 0.0000 -0.3500 6.8000
v 0.0000 -0.6500 5.5000
v 0.5525 -0.2625 6.8000
v 0.0000 -0.6500 5.5000
v 1.0725 -0.4625 5.5000
v 0.0000 -0.3500 6.8000
v -0.5525 -0.2625 6.8000
v -1.0725 -0.4625 5.5000
v 0.0000 -0.3500 6.8000
v -1.0725 -0.4625 5.5000
v 0.0000 -0.6500 5.5000
v -0.5525 -0.2625 6.8000
v -0.8500 0.0000 6.8000
v -1.6500 0.1000 5.5000
v -0.5525 -0.2625 6.8000
v -1.6500 0.1000 5.5000
v -1.0725 -0.4625 5.5000
v -0.8500 0.0000 6.8000
v -0.5525 0.2625 6.8000
v -1.0725 0.5875 5.5000
v -0.8500 0.0000 6.8000
v -1.0725 0.5875 5.5000
v -1.6500 0.1000 5.5000
v -0.5525 0.2625 6.8000
v 0.0000 0.3500 6.8000
v 0.0000 0.7500 5.5000
v -0.5525 0.2625 6.8000
v 0.0000 0.7500 5.5000
v -1.0725 0.5875 5.5000
v 0.0000 0.7500 5.5000
v 1.0725 0.5875 5.5000
v 1.4950 0.9125 4.0000
v 0.0000 0.7500 5.5000
v 1.4950 0.9125 4.0000
v 0.0000 1.1500 4.0000
v 1.0725 0.5875 5.5000
v 1.6500 0.1000 5.5000
v 2.3000 0.2000 4.0000
v 1.0725 0.5875 5.5000
v 2.3000 0.2000 4.0000
v 1.4950 0.9125 4.0000
v 1.6500 0.1000 5.5000
v 1.0725 -0.4625 5.5000
v 1.4950 -0.5875 4.0000
v 1.6500 0.1000 5.5000
v 1.4950 -0.5875 4.0000
v 2.3000 0.2000 4.0000
v 1.0725 -0.4625 5.5000
v 0.0000 -0.6500 5.5000
v 0.0000 -0.8500 4.0000
v 1.0725 -0.4625 5.5000
v 0.0000 -0.8500 4.0000
v 1.4950 -0.5875 4.0000
v 0.0000 -0.6500 5.5000
v -1.0725 -0.4625 5.5000
v -1.4950 -0.5875 4.0000
v 0.0000 -0.6500 5.5000
v -1.4950 -0.5875 4.0000
v 0.0000 -0.8500 4.0000
v -1.0725 -0.4625 5.5000
v -1.6500 0.1000 5.5000
v -2.3000 0.2000 4.0000
v -1.0725 -0.4625 5.5000
v -2.3000 0.2000 4.0000
v -1.4950 -0.5875 4.0000
v -1.6500 0.1000 5.5000
v -1.0725 0.5875 5.5000
v -1.4950 0.9125 4.0000
v -1.6500 0.1000 5.5000
v -1.4950 0.9125 4.0000
v -2.3000 0.2000 4.0000
v -1.0725 0.5875 5.5000
v 0.0000 0.7500 5.5000
v 0.0000 1.1500 4.0000
v -1.0725 0.5875 5.5000
v 0.0000 1.1500 4.0000
v -1.4950 0.9125 4.0000
v 0.0000 1.1500 4.0000
v 1.4950 0.9125 4.0000
v 1.8200 1.1125 2.5000
v 0.0000 1.1500 4.0000
v 1.8200 1.1125 2.5000
v 0.0000 1.4000 2.5000
v 1.4950 0.9125 4.0000
v 2.3000 0.2000 4.0000
v 2.8000 0.2500 2.5000
v 1.4950 0.9125 4.0000
v 2.8000 0.2500 2.5000
v 1.8200 1.1125 2.5000
v 2.3000 0.2000 4.0000
v 1.4950 -0.5875 4.0000
v 1.8200 -0.6875 2.5000
v 2.3000 0.2000 4.0000
v 1.8200 -0.6875 2.5000
v 2.8000 0.2500 2.5000
v 1.4950 -0.5875 4.0000
v 0.0000 -0.8500 4.0000
v 0.0000 -1.0000 2.5000
v 1.4950 -0.5875 4.0000
v 0.0000 -1.0000 2.5000
v 1.8200 -0.6875 2.5000
v 0.0000 -0.8500 4.0000
v -1.4950 -0.5875 4.0000
v -1.8200 -0.6875 2.5000
v 0.0000 -0.8500 4.0000
v -1.8200 -0.6875 2.5000
v 0.0000 -1.0000 2.5000
v -1.4950 -0.5875 4.0000
v -2.3000 0.2000 4.0000
v -2.8000 0.2500 2.5000
v -1.4950 -0.5875 4.0000
v -2.8000 0.2500 2.5000
v -1.8200 -0.6875 2.5000
v -2.3000 0.2000 4.0000
v -1.4950 0.9125 4.0000
v -1.8200 1.1125 2.5000
v -2.3000 0.2000 4.0000
v -1.8200 1.1125 2.5000
v -2.8000 0.2500 2.5000
v -1.4950 0.9125 4.0000
v 0.0000 1.1500 4.0000
v 0.0000 1.4000 2.5000
v -1.4950 0.9125 4.0000
v 0.0000 1.4000 2.5000
v -1.8200 1.1125 2.5000
v 0.0000 1.4000 2.5000
v 1.8200 1.1125 2.5000
v 2.1450 1.1500 1.0000
v 0.0000 1.4000 2.5000
v 2.1450 1.1500 1.0000
v 0.0000 1.4500 1.0000
v 1.8200 1.1125 2.5000
v 2.8000 0.2500 2.5000
v 3.3000 0.2500 1.0000
v 1.8200 1.1125 2.5000
v 3.3000 0.2500 1.0000
v 2.1450 1.1500 1.0000
v 2.8000 0.2500 2.5000
v 1.8200 -0.6875 2.5000
v 2.1450 -0.7625 1.0000
v 2.8000 0.2500 2.5000
v 2.1450 -0.7625 1.0000
v 3.3000 0.2500 1.0000
v 1.8200 -0.6875 2.5000
v 0.0000 -1.0000 2.5000
v 0.0000 -1.1000 1.0000
v 1.8200 -0.6875 2.5000
v 0.0000 -1.1000 1.0000
v 2.1450 -0.7625 1.0000
v 0.0000 -1.0000 2.5000
v -1.8200 -0.6875 2.5000
v -2.1450 -0.7625 1.0000
v 0.0000 -1.0000 2.5000
v -2.1450 -0.7625 1.0000
v 0.0000 -1.1000 1.0000
v -1.8200 -0.6875 2.5000
v -2.8000 0.2500 2.5000
v -3.3000 0.2500 1.0000
v -1.8200 -0.6875 2.5000
v -3.3000 0.2500 1.0000
v -2.1450 -0.7625 1.0000
v -2.8000 0.2500 2.5000
v -1.8200 1.1125 2.5000
v -2.1450 1.1500 1.0000
v -2.8000 0.2500 2.5000
v -2.1450 1.1500 1.0000
v -3.3000 0.2500 1.0000
v -1.8200 1.1125 2.5000
v 0.0000 1.4000 2.5000
v 0.0000 1.4500 1.0000
v -1.8200 1.1125 2.5000
v 0.0000 1.4500 1.0000
v -2.1450 1.1500 1.0000
v 0.0000 1.4500 1.0000
v 2.1450 1.1500 1.0000
v 2.3725 1.1125 -0.5000
v 0.0000 1.4500 1.0000
v 2.3725 1.1125 -0.5000
v 0.0000 1.4000 -0.5000
v 2.1450 1.1500 1.0000
v 3.3000 0.2500 1.0000
v 3.6500 0.2500 -0.5000
v 2.1450 1.1500 1.0000
v 3.6500 0.2500 -0.5000
v 2.3725 1.1125 -0.5000
v 3.3000 0.2500 1.0000
v 2.1450 -0.7625 1.0000
v 2.3725 -0.7625 -0.5000
v 3.3000 0.2500 1.0000
v 2.3725 -0.7625 -0.5000
v 3.6500 0.2500 -0.5000
v 2.1450 -0.7625 1.0000
v 0.0000 -1.1000 1.0000
v 0.0000 -1.1000 -0.5000
v 2.1450 -0.7625 1.0000
v 0.0000 -1.1000 -0.5000
v 2.3725 -0.7625 -0.5000
v 0.0000 -1.1000 1.0000
v -2.1450 -0.7625 1.0000
v -2.3725 -0.7625 -0.5000
v 0.0000 -1.1000 1.0000
v -2.3725 -0.7625 -0.5000
v 0.0000 -1.1000 -0.5000
v -2.1450 -0.7625 1.0000
v -3.3000 0.2500 1.0000
v -3.6500 0.2500 -0.5000
v -2.1450 -0.7625 1.0000
v -3.6500 0.2500 -0.5000
v -2.3725 -0.7625 -0.5000
v -3.3000 0.2500 1.0000
v -2.1450 1.1500 1.0000
v -2.3725 1.1125 -0.5000
v -3.3000 0.2500 1.0000
v -2.3725 1.1125 -0.5000
v -3.6500 0.2500 -0.5000
v -2.1450 1.1500 1.0000
v 0.0000 1.4500 1.0000
v 0.0000 1.4000 -0.5000
v -2.1450 1.1500 1.0000
v 0.0000 1.4000 -0.5000
v -2.3725 1.1125 -0.5000
v 0.0000 1.4000 -0.5000
v 2.3725 1.1125 -0.5000
v 2.3075 1.0250 -2.0000
v 0.0000 1.4000 -0.5000
v 2.3075 1.0250 -2.0000
v 0.0000 1.3000 -2.0000
v 2.3725 1.1125 -0.5000
v 3.6500 0.2500 -0.5000
v 3.5500 0.2000 -2.0000
v 2.3725 1.1125 -0.5000
v 3.5500 0.2000 -2.0000
v 2.3075 1.0250 -2.0000
v 3.6500 0.2500 -0.5000
v 2.3725 -0.7625 -0.5000
v 2.3075 -0.7375 -2.0000
v 3.6500 0.2500 -0.5000
v 2.3075 -0.7375 -2.0000
v 3.5500 0.2000 -2.0000
v 2.3725 -0.7625 -0.5000
v 0.0000 -1.1000 -0.5000
v 0.0000 -1.0500 -2.0000
v 2.3725 -0.7625 -0.5000
v 0.0000 -1.0500 -2.0000
v 2.3075 -0.7375 -2.0000
v 0.0000 -1.1000 -0.5000
v -2.3725 -0.7625 -0.5000
v -2.3075 -0.7375 -2.0000
v 0.0000 -1.1000 -0.5000
v -2.3075 -0.7375 -2.0000
v 0.0000 -1.0500 -2.0000
v -2.3725 -0.7625 -0.5000
v -3.6500 0.2500 -0.5000
v -3.5500 0.2000 -2.0000
v -2.3725 -0.7625 -0.5000
v -3.5500 0.2000 -2.0000
v -2.3075 -0.7375 -2.0000
v -3.6500 0.2500 -0.5000
v -2.3725 1.1125 -0.5000
v -2.3075 1.0250 -2.0000
v -3.6500 0.2500 -0.5000
v -2.3075 1.0250 -2.0000
v -3.5500 0.2000 -2.0000
v -2.3725 1.1125 -0.5000
v 0.0000 1.4000 -0.5000
v 0.0000 1.3000 -2.0000
v -2.3725 1.1125 -0.5000
v 0.0000 1.3000 -2.0000
v -2.3075 1.0250 -2.0000
v 0.0000 1.3000 -2.0000
v 2.3075 1.0250 -2.0000
v 2.1125 0.9375 -3.5000
v 0.0000 1.3000 -2.0000
v 2.1125 0.9375 -3.5000
v 0.0000 1.2000 -3.5000
v 2.3075 1.0250 -2.0000
v 3.5500 0.2000 -2.0000
v 3.2500 0.1500 -3.5000
v 2.3075 1.0250 -2.0000
v 3.2500 0.1500 -3.5000
v 2.1125 0.9375 -3.5000
v 3.5500 0.2000 -2.0000
v 2.3075 -0.7375 -2.0000
v 2.1125 -0.6750 -3.5000
v 3.5500 0.2000 -2.0000
v 2.1125 -0.6750 -3.5000
v 3.2500 0.1500 -3.5000
v 2.3075 -0.7375 -2.0000
v 0.0000 -1.0500 -2.0000
v 0.0000 -0.9500 -3.5000
v 2.3075 -0.7375 -2.0000
v 0.0000 -0.9500 -3.5000
v 2.1125 -0.6750 -3.5000
v 0.0000 -1.0500 -2.0000
v -2.3075 -0.7375 -2.0000
v -2.1125 -0.6750 -3.5000
v 0.0000 -1.0500 -2.0000
v -2.1125 -0.6750 -3.5000
v 0.0000 -0.9500 -3.5000
v -2.3075 -0.7375 -2.0000
v -3.5500 0.2000 -2.0000
v -3.2500 0.1500 -3.5000
v -2.3075 -0.7375 -2.0000
v -3.2500 0.1500 -3.5000
v -2.1125 -0.6750 -3.5000
v -3.5500 0.2000 -2.0000
v -2.3075 1.0250 -2.0000
v -2.1125 0.9375 -3.5000
v -3.5500 0.2000 -2.0000
v -2.1125 0.9375 -3.5000
v -3.2500 0.1500 -3.5000
v -2.3075 1.0250 -2.0000
v 0.0000 1.3000 -2.0000
v 0.0000 1.2000 -3.5000
v -2.3075 1.0250 -2.0000
v 0.0000 1.2000 -3.5000
v -2.1125 0.9375 -3.5000
v 0.0000 1.2000 -3.5000
v 2.1125 0.9375 -3.5000
v 1.7550 0.7375 -5.0000
v 0.0000 1.2000 -3.5000
v 1.7550 0.7375 -5.0000
v 0.0000 0.9500 -5.0000
v 2.1125 0.9375 -3.5000
v 3.2500 0.1500 -3.5000
v 2.7000 0.1000 -5.0000
v 2.1125 0.9375 -3.5000
v 2.7000 0.1000 -5.0000
v 1.7550 0.7375 -5.0000
v 3.2500 0.1500 -3.5000
v 2.1125 -0.6750 -3.5000
v 1.7550 -0.6125 -5.0000
v 3.2500 0.1500 -3.5000
v 1.7550 -0.6125 -5.0000
v 2.7000 0.1000 -5.0000
v 2.1125 -0.6750 -3.5000
v 0.0000 -0.9500 -3.5000
v 0.0000 -0.8500 -5.0000
v 2.1125 -0.6750 -3.5000
v 0.0000 -0.8500 -5.0000
v 1.7550 -0.6125 -5.0000
v 0.0000 -0.9500 -3.5000
v -2.1125 -0.6750 -3.5000
v -1.7550 -0.6125 -5.0000
v 0.0000 -0.9500 -3.5000
v -1.7550 -0.6125 -5.0000
v 0.0000 -0.8500 -5.0000
v -2.1125 -0.6750 -3.5000
v -3.2500 0.1500 -3.5000
v -2.7000 0.1000 -5.0000
v -2.1125 -0.6750 -3.5000
v -2.7000 0.1000 -5.0000
v -1.7550 -0.6125 -5.0000
v -3.2500 0.1500 -3.5000
v -2.1125 0.9375 -3.5000
v -1.7550 0.7375 -5.0000
v -3.2500 0.1500 -3.5000
v -1.7550 0.7375 -5.0000
v -2.7000 0.1000 -5.0000
v -2.1125 0.9375 -3.5000
v 0.0000 1.2000 -3.5000
v 0.0000 0.9500 -5.0000
v -2.1125 0.9375 -3.5000
v 0.0000 0.9500 -5.0000
v -1.7550 0.7375 -5.0000
v 0.0000 0.9500 -5.0000
v 1.7550 0.7375 -5.0000
v 1.1700 0.5250 -6.5000
v 0.0000 0.9500 -5.0000
v 1.1700 0.5250 -6.5000
v 0.0000 0.7000 -6.5000
v 1.7550 0.7375 -5.0000
v 2.7000 0.1000 -5.0000
v 1.8000 0.0000 -6.5000
v 1.7550 0.7375 -5.0000
v 1.8000 0.0000 -6.5000
v 1.1700 0.5250 -6.5000
v 2.7000 0.1000 -5.0000
v 1.7550 -0.6125 -5.0000
v 1.1700 -0.5250 -6.5000
v 2.7000 0.1000 -5.0000
v 1.1700 -0.5250 -6.5000
v 1.8000 0.0000 -6.5000
v 1.7550 -0.6125 -5.0000
v 0.0000 -0.8500 -5.0000
v 0.0000 -0.7000 -6.5000
v 1.7550 -0.6125 -5.0000
v 0.0000 -0.7000 -6.5000
v 1.1700 -0.5250 -6.5000
v 0.0000 -0.8500 -5.0000
v -1.7550 -0.6125 -5.0000
v -1.1700 -0.5250 -6.5000
v 0.0000 -0.8500 -5.0000
v -1.1700 -0.5250 -6.5000
v 0.0000 -0.7000 -6.5000
v -1.7550 -0.6125 -5.0000
v -2.7000 0.1000 -5.0000
v -1.8000 0.0000 -6.5000
v -1.7550 -0.6125 -5.0000
v -1.8000 0.0000 -6.5000
v -1.1700 -0.5250 -6.5000
v -2.7000 0.1000 -5.0000
v -1.7550 0.7375 -5.0000
v -1.1700 0.5250 -6.5000
v -2.7000 0.1000 -5.0000
v -1.1700 0.5250 -6.5000
v -1.8000 0.0000 -6.5000
v -1.7550 0.7375 -5.0000
v 0.0000 0.9500 -5.0000
v 0.0000 0.7000 -6.5000
v -1.7550 0.7375 -5.0000
v 0.0000 0.7000 -6.5000
v -1.1700 0.5250 -6.5000
v 0.6000 1.3000 4.2000
v 0.5706 1.3000 4.2000
v 0.8155 1.3985 3.6857
v 0.6000 1.3000 4.2000
v 0.8155 1.3985 3.6857
v 0.8575 1.2937 3.6857
v 0.5706 1.3000 4.2000
v 0.4854 1.3000 4.2000
v 0.6937 1.4930 3.6857
v 0.5706 1.3000 4.2000
v 0.6937 1.4930 3.6857
v 0.8155 1.3985 3.6857
v 0.4854 1.3000 4.2000
v 0.3527 1.3000 4.2000
v 0.5040 1.5681 3.6857
v 0.4854 1.3000 4.2000
v 0.5040 1.5681 3.6857
v 0.6937 1.4930 3.6857
v 0.3527 1.3000 4.2000
v 0.1854 1.3000 4.2000
v 0.2650 1.6162 3.6857
v 0.3527 1.3000 4.2000
v 0.2650 1.6162 3.6857
v 0.5040 1.5681 3.6857
v 0.1854 1.3000 4.2000
v 0.0000 1.3000 4.2000
v 0.0000 1.6328 3.6857
v 0.1854 1.3000 4.2000
v 0.0000 1.6328 3.6857
v 0.2650 1.6162 3.6857
v 0.0000 1.3000 4.2000
v -0.1854 1.3000 4.2000
v -0.2650 1.6162 3.6857
v 0.0000 1.3000 4.2000
v -0.2650 1.6162 3.6857
v 0.0000 1.6328 3.6857
v -0.1854 1.3000 4.2000
v -0.3527 1.3000 4.2000
v -0.5040 1.5681 3.6857
v -0.1854 1.3000 4.2000
v -0.5040 1.5681 3.6857
v -0.2650 1.6162 3.6857
v -0.3527 1.3000 4.2000
v -0.4854 1.3000 4.2000
v -0.6937 1.4930 3.6857
v -0.3527 1.3000 4.2000
v -0.6937 1.4930 3.6857
v -0.5040 1.5681 3.6857
v -0.4854 1.3000 4.2000
v -0.5706 1.3000 4.2000
v -0.8155 1.3985 3.6857
v -0.4854 1.3000 4.2000
v -0.8155 1.3985 3.6857
v -0.6937 1.4930 3.6857
v -0.5706 1.3000 4.2000
v -0.6000 1.3000 4.2000
v -0.8575 1.2937 3.6857
v -0.5706 1.3000 4.2000
v -0.8575 1.2937 3.6857
v -0.8155 1.3985 3.6857
v 0.8575 1.2937 3.6857
v 0.8155 1.3985 3.6857
v 1.0377 1.4653 3.1714
v 0.8575 1.2937 3.6857
v 1.0377 1.4653 3.1714
v 1.0911 1.2752 3.1714
v 0.8155 1.3985 3.6857
v 0.6937 1.4930 3.6857
v 0.8827 1.6367 3.1714
v 0.8155 1.3985 3.6857
v 0.8827 1.6367 3.1714
v 1.0377 1.4653 3.1714
v 0.6937 1.4930 3.6857
v 0.5040 1.5681 3.6857
v 0.6414 1.7728 3.1714
v 0.6937 1.4930 3.6857
v 0.6414 1.7728 3.1714
v 0.8827 1.6367 3.1714
v 0.5040 1.5681 3.6857
v 0.2650 1.6162 3.6857
v 0.3372 1.8601 3.1714
v 0.5040 1.5681 3.6857
v 0.3372 1.8601 3.1714
v 0.6414 1.7728 3.1714
v 0.2650 1.6162 3.6857
v 0.0000 1.6328 3.6857
v 0.0000 1.8902 3.1714
v 0.2650 1.6162 3.6857
v 0.0000 1.8902 3.1714
v 0.3372 1.8601 3.1714
v 0.0000 1.6328 3.6857
v -0.2650 1.6162 3.6857
v -0.3372 1.8601 3.1714
v 0.0000 1.6328 3.6857
v -0.3372 1.8601 3.1714
v 0.0000 1.8902 3.1714
v -0.2650 1.6162 3.6857
v -0.5040 1.5681 3.6857
v -0.6414 1.7728 3.1714
v -0.2650 1.6162 3.6857
v -0.6414 1.7728 3.1714
v -0.3372 1.8601 3.1714
v -0.5040 1.5681 3.6857
v -0.6937 1.4930 3.6857
v -0.8827 1.6367 3.1714
v -0.5040 1.5681 3.6857
v -0.8827 1.6367 3.1714
v -0.6414 1.7728 3.1714
v -0.6937 1.4930 3.6857
v -0.8155 1.3985 3.6857
v -1.0377 1.4653 3.1714
v -0.6937 1.4930 3.6857
v -1.0377 1.4653 3.1714
v -0.8827 1.6367 3.1714
v -0.8155 1.3985 3.6857
v -0.8575 1.2937 3.6857
v -1.0911 1.2752 3.1714
v -0.8155 1.3985 3.6857
v -1.0911 1.2752 3.1714
v -1.0377 1.4653 3.1714
v 1.0911 1.2752 3.1714
v 1.0377 1.4653 3.1714
v 1.1710 1.4855 2.6571
v 1.0911 1.2752 3.1714
v 1.1710 1.4855 2.6571
v 1.2313 1.2455 2.6571
v 1.0377 1.4653 3.1714
v 0.8827 1.6367 3.1714
v 0.9961 1.7020 2.6571
v 1.0377 1.4653 3.1714
v 0.9961 1.7020 2.6571
v 1.1710 1.4855 2.6571
v 0.8827 1.6367 3.1714
v 0.6414 1.7728 3.1714
v 0.7237 1.8739 2.6571
v 0.8827 1.6367 3.1714
v 0.7237 1.8739 2.6571
v 0.9961 1.7020 2.6571
v 0.6414 1.7728 3.1714
v 0.3372 1.8601 3.1714
v 0.3805 1.9842 2.6571
v 0.6414 1.7728 3.1714
v 0.3805 1.9842 2.6571
v 0.7237 1.8739 2.6571
v 0.3372 1.8601 3.1714
v 0.0000 1.8902 3.1714
v 0.0000 2.0222 2.6571
v 0.3372 1.8601 3.1714
v 0.0000 2.0222 2.6571
v 0.3805 1.9842 2.6571
v 0.0000 1.8902 3.1714
v -0.3372 1.8601 3.1714
v -0.3805 1.9842 2.6571
v 0.0000 1.8902 3.1714
v -0.3805 1.9842 2.6571
v 0.0000 2.0222 2.6571
v -0.3372 1.8601 3.1714
v -0.6414 1.7728 3.1714
v -0.7237 1.8739 2.6571
v -0.3372 1.8601 3.1714
v -0.7237 1.8739 2.6571
v -0.3805 1.9842 2.6571
v -0.6414 1.7728 3.1714
v -0.8827 1.6367 3.1714
v -0.9961 1.7020 2.6571
v -0.6414 1.7728 3.1714
v -0.9961 1.7020 2.6571
v -0.7237 1.8739 2.6571
v -0.8827 1.6367 3.1714
v -1.0377 1.4653 3.1714
v -1.1710 1.4855 2.6571
v -0.8827 1.6367 3.1714
v -1.1710 1.4855 2.6571
v -0.9961 1.7020 2.6571
v -1.0377 1.4653 3.1714
v -1.0911 1.2752 3.1714
v -1.2313 1.2455 2.6571
v -1.0377 1.4653 3.1714
v -1.2313 1.2455 2.6571
v -1.1710 1.4855 2.6571
v 1.2313 1.2455 2.6571
v 1.1710 1.4855 2.6571
v 1.1710 1.4518 2.1429
v 1.2313 1.2455 2.6571
v 1.1710 1.4518 2.1429
v 1.2313 1.2059 2.1429
v 1.1710 1.4855 2.6571
v 0.9961 1.7020 2.6571
v 0.9961 1.6736 2.1429
v 1.1710 1.4855 2.6571
v 0.9961 1.6736 2.1429
v 1.1710 1.4518 2.1429
v 0.9961 1.7020 2.6571
v 0.7237 1.8739 2.6571
v 0.7237 1.8497 2.1429
v 0.9961 1.7020 2.6571
v 0.7237 1.8497 2.1429
v 0.9961 1.6736 2.1429
v 0.7237 1.8739 2.6571
v 0.3805 1.9842 2.6571
v 0.3805 1.9627 2.1429
v 0.7237 1.8739 2.6571
v 0.3805 1.9627 2.1429
v 0.7237 1.8497 2.1429
v 0.3805 1.9842 2.6571
v 0.0000 2.0222 2.6571
v 0.0000 2.0016 2.1429
v 0.3805 1.9842 2.6571
v 0.0000 2.0016 2.1429
v 0.3805 1.9627 2.1429
v 0.0000 2.0222 2.6571
v -0.3805 1.9842 2.6571
v -0.3805 1.9627 2.1429
v 0.0000 2.0222 2.6571
v -0.3805 1.9627 2.1429
v 0.0000 2.0016 2.1429
v -0.3805 1.9842 2.6571
v -0.7237 1.8739 2.6571
v -0.7237 1.8497 2.1429
v -0.3805 1.9842 2.6571
v -0.7237 1.8497 2.1429
v -0.3805 1.9627 2.1429
v -0.7237 1.8739 2.6571
v -0.9961 1.7020 2.6571
v -0.9961 1.6736 2.1429
v -0.7237 1.8739 2.6571
v -0.9961 1.6736 2.1429
v -0.7237 1.8497 2.1429
v -0.9961 1.7020 2.6571
v -1.1710 1.4855 2.6571
v -1.1710 1.4518 2.1429
v -0.9961 1.7020 2.6571
v -1.1710 1.4518 2.1429
v -0.9961 1.6736 2.1429
v -1.1710 1.4855 2.6571
v -1.2313 1.2455 2.6571
v -1.2313 1.2059 2.1429
v -1.1710 1.4855 2.6571
v -1.2313 1.2059 2.1429
v -1.1710 1.4518 2.1429
v 1.2313 1.2059 2.1429
v 1.1710 1.4518 2.1429
v 1.0377 1.3658 1.6286
v 1.2313 1.2059 2.1429
v 1.0377 1.3658 1.6286
v 1.0911 1.1585 1.6286
v 1.1710 1.4518 2.1429
v 0.9961 1.6736 2.1429
v 0.8827 1.5529 1.6286
v 1.1710 1.4518 2.1429
v 0.8827 1.5529 1.6286
v 1.0377 1.3658 1.6286
v 0.9961 1.6736 2.1429
v 0.7237 1.8497 2.1429
v 0.6414 1.7013 1.6286
v 0.9961 1.6736 2.1429
v 0.6414 1.7013 1.6286
v 0.8827 1.5529 1.6286
v 0.7237 1.8497 2.1429
v 0.3805 1.9627 2.1429
v 0.3372 1.7967 1.6286
v 0.7237 1.8497 2.1429
v 0.3372 1.7967 1.6286
v 0.6414 1.7013 1.6286
v 0.3805 1.9627 2.1429
v 0.0000 2.0016 2.1429
v 0.0000 1.8295 1.6286
v 0.3805 1.9627 2.1429
v 0.0000 1.8295 1.6286
v 0.3372 1.7967 1.6286
v 0.0000 2.0016 2.1429
v -0.3805 1.9627 2.1429
v -0.3372 1.7967 1.6286
v 0.0000 2.0016 2.1429
v -0.3372 1.7967 1.6286
v 0.0000 1.8295 1.6286
v -0.3805 1.9627 2.1429
v -0.7237 1.8497 2.1429
v -0.6414 1.7013 1.6286
v -0.3805 1.9627 2.1429
v -0.6414 1.7013 1.6286
v -0.3372 1.7967 1.6286
v -0.7237 1.8497 2.1429
v -0.9961 1.6736 2.1429
v -0.8827 1.5529 1.6286
v -0.7237 1.8497 2.1429
v -0.8827 1.5529 1.6286
v -0.6414 1.7013 1.6286
v -0.9961 1.6736 2.1429
v -1.1710 1.4518 2.1429
v -1.0377 1.3658 1.6286
v -0.9961 1.6736 2.1429
v -1.0377 1.3658 1.6286
v -0.8827 1.5529 1.6286
v -1.1710 1.4518 2.1429
v -1.2313 1.2059 2.1429
v -1.0911 1.1585 1.6286
v -1.1710 1.4518 2.1429
v -1.0911 1.1585 1.6286
v -1.0377 1.3658 1.6286
v 1.0911 1.1585 1.6286
v 1.0377 1.3658 1.6286
v 0.8155 1.2383 1.1143
v 1.0911 1.1585 1.6286
v 0.8155 1.2383 1.1143
v 0.8575 1.1056 1.1143
v 1.0377 1.3658 1.6286
v 0.8827 1.5529 1.6286
v 0.6937 1.3580 1.1143
v 1.0377 1.3658 1.6286
v 0.6937 1.3580 1.1143
v 0.8155 1.2383 1.1143
v 0.8827 1.5529 1.6286
v 0.6414 1.7013 1.6286
v 0.5040 1.4530 1.1143
v 0.8827 1.5529 1.6286
v 0.5040 1.4530 1.1143
v 0.6937 1.3580 1.1143
v 0.6414 1.7013 1.6286
v 0.3372 1.7967 1.6286
v 0.2650 1.5140 1.1143
v 0.6414 1.7013 1.6286
v 0.2650 1.5140 1.1143
v 0.5040 1.4530 1.1143
v 0.3372 1.7967 1.6286
v 0.0000 1.8295 1.6286
v 0.0000 1.5350 1.1143
v 0.3372 1.7967 1.6286
v 0.0000 1.5350 1.1143
v 0.2650 1.5140 1.1143
v 0.0000 1.8295 1.6286
v -0.3372 1.7967 1.6286
v -0.2650 1.5140 1.1143
v 0.0000 1.8295 1.6286
v -0.2650 1.5140 1.1143
v 0.0000 1.5350 1.1143
v -0.3372 1.7967 1.6286
v -0.6414 1.7013 1.6286
v -0.5040 1.4530 1.1143
v -0.3372 1.7967 1.6286
v -0.5040 1.4530 1.1143
v -0.2650 1.5140 1.1143
v -0.6414 1.7013 1.6286
v -0.8827 1.5529 1.6286
v -0.6937 1.3580 1.1143
v -0.6414 1.7013 1.6286
v -0.6937 1.3580 1.1143
v -0.5040 1.4530 1.1143
v -0.8827 1.5529 1.6286
v -1.0377 1.3658 1.6286
v -0.8155 1.2383 1.1143
v -0.8827 1.5529 1.6286
v -0.8155 1.2383 1.1143
v -0.6937 1.3580 1.1143
v -1.0377 1.3658 1.6286
v -1.0911 1.1585 1.6286
v -0.8575 1.1056 1.1143
v -1.0377 1.3658 1.6286
v -0.8575 1.1056 1.1143
v -0.8155 1.2383 1.1143
v 0.8575 1.1056 1.1143
v 0.8155 1.2383 1.1143
v 0.5706 1.0871 0.6000
v 0.8575 1.1056 1.1143
v 0.5706 1.0871 0.6000
v 0.6000 1.0500 0.6000
v 0.8155 1.2383 1.1143
v 0.6937 1.3580 1.1143
v 0.4854 1.1205 0.6000
v 0.8155 1.2383 1.1143
v 0.4854 1.1205 0.6000
v 0.5706 1.0871 0.6000
v 0.6937 1.3580 1.1143
v 0.5040 1.4530 1.1143
v 0.3527 1.1471 0.6000
v 0.6937 1.3580 1.1143
v 0.3527 1.1471 0.6000
v 0.4854 1.1205 0.6000
v 0.5040 1.4530 1.1143
v 0.2650 1.5140 1.1143
v 0.1854 1.1641 0.6000
v 0.5040 1.4530 1.1143
v 0.1854 1.1641 0.6000
v 0.3527 1.1471 0.6000
v 0.2650 1.5140 1.1143
v 0.0000 1.5350 1.1143
v 0.0000 1.1700 0.6000
v 0.2650 1.5140 1.1143
v 0.0000 1.1700 0.6000
v 0.1854 1.1641 0.6000
v 0.0000 1.5350 1.1143
v -0.2650 1.5140 1.1143
v -0.1854 1.1641 0.6000
v 0.0000 1.5350 1.1143
v -0.1854 1.1641 0.6000
v 0.0000 1.1700 0.6000
v -0.2650 1.5140 1.1143
v -0.5040 1.4530 1.1143
v -0.3527 1.1471 0.6000
v -0.2650 1.5140 1.1143
v -0.3527 1.1471 0.6000
v -0.1854 1.1641 0.6000
v -0.5040 1.4530 1.1143
v -0.6937 1.3580 1.1143
v -0.4854 1.1205 0.6000
v -0.5040 1.4530 1.1143
v -0.4854 1.1205 0.6000
v -0.3527 1.1471 0.6000
v -0.6937 1.3580 1.1143
v -0.8155 1.2383 1.1143
v -0.5706 1.0871 0.6000
v -0.6937 1.3580 1.1143
v -0.5706 1.0871 0.6000
v -0.4854 1.1205 0.6000
v -0.8155 1.2383 1.1143
v -0.8575 1.1056 1.1143
v -0.6000 1.0500 0.6000
v -0.8155 1.2383 1.1143
v -0.6000 1.0500 0.6000
v -0.5706 1.0871 0.6000
v 1.2313 1.2059 2.1429
v 1.1710 1.4518 2.1429
v 1.1476 1.4808 2.1429
v 1.2313 1.2059 2.1429
v 1.1476 1.4808 2.1429
v 1.2066 1.2300 2.1429
v 1.1710 1.4518 2.1429
v 0.9961 1.6736 2.1429
v 0.9762 1.7071 2.1429
v 1.1710 1.4518 2.1429
v 0.9762 1.7071 2.1429
v 1.1476 1.4808 2.1429
v 0.9961 1.6736 2.1429
v 0.7237 1.8497 2.1429
v 0.7092 1.8867 2.1429
v 0.9961 1.6736 2.1429
v 0.7092 1.8867 2.1429
v 0.9762 1.7071 2.1429
v 0.7237 1.8497 2.1429
v 0.3805 1.9627 2.1429
v 0.3729 2.0019 2.1429
v 0.7237 1.8497 2.1429
v 0.3729 2.0019 2.1429
v 0.7092 1.8867 2.1429
v 0.3805 1.9627 2.1429
v 0.0000 2.0016 2.1429
v 0.0000 2.0417 2.1429
v 0.3805 1.9627 2.1429
v 0.0000 2.0417 2.1429
v 0.3729 2.0019 2.1429
v 0.0000 2.0016 2.1429
v -0.3805 1.9627 2.1429
v -0.3729 2.0019 2.1429
v 0.0000 2.0016 2.1429
v -0.3729 2.0019 2.1429
v 0.0000 2.0417 2.1429
v -0.3805 1.9627 2.1429
v -0.7237 1.8497 2.1429
v -0.7092 1.8867 2.1429
v -0.3805 1.9627 2.1429
v -0.7092 1.8867 2.1429
v -0.3729 2.0019 2.1429
v -0.7237 1.8497 2.1429
v -0.9961 1.6736 2.1429
v -0.9762 1.7071 2.1429
v -0.7237 1.8497 2.1429
v -0.9762 1.7071 2.1429
v -0.7092 1.8867 2.1429
v -0.9961 1.6736 2.1429
v -1.1710 1.4518 2.1429
v -1.1476 1.4808 2.1429
v -0.9961 1.6736 2.1429
v -1.1476 1.4808 2.1429
v -0.9762 1.7071 2.1429
v -1.1710 1.4518 2.1429
v -1.2313 1.2059 2.1429
v -1.2066 1.2300 2.1429
v -1.1710 1.4518 2.1429
v -1.2066 1.2300 2.1429
v -1.1476 1.4808 2.1429
v 1.5000 0.4500 0.4000
v 2.6000 0.3200 0.1000
v 2.0000 -0.1000 -0.7000
v 2.6000 0.3200 0.1000
v 2.4000 -0.6500 -0.1000
v 2.0000 -0.1000 -0.7000
v 2.4000 -0.6500 -0.1000
v 1.4000 -0.5500 0.2000
v 2.0000 -0.1000 -0.7000
v 1.4000 -0.5500 0.2000
v 1.5000 0.4500 0.4000
v 2.0000 -0.1000 -0.7000
v 1.5000 0.4500 0.4000
v 1.8000 0.5500 -2.0000
v 3.0000 0.4200 -2.0000
v 1.5000 0.4500 0.4000
v 3.0000 0.4200 -2.0000
v 2.6000 0.3200 0.1000
v 2.6000 0.3200 0.1000
v 3.0000 0.4200 -2.0000
v 2.8000 -0.7500 -2.0000
v 2.6000 0.3200 0.1000
v 2.8000 -0.7500 -2.0000
v 2.4000 -0.6500 -0.1000
v 2.4000 -0.6500 -0.1000
v 2.8000 -0.7500 -2.0000
v 1.7000 -0.6500 -2.0000
v 2.4000 -0.6500 -0.1000
v 1.7000 -0.6500 -2.0000
v 1.4000 -0.5500 0.2000
v -1.5000 0.4500 0.4000
v -2.6000 0.3200 0.1000
v -2.0000 -0.1000 -0.7000
v -2.6000 0.3200 0.1000
v -2.4000 -0.6500 -0.1000
v -2.0000 -0.1000 -0.7000
v -2.4000 -0.6500 -0.1000
v -1.4000 -0.5500 0.2000
v -2.0000 -0.1000 -0.7000
v -1.4000 -0.5500 0.2000
v -1.5000 0.4500 0.4000
v -2.0000 -0.1000 -0.7000
v -1.5000 0.4500 0.4000
v -2.6000 0.3200 0.1000
v -3.0000 0.4200 -2.0000
v -1.5000 0.4500 0.4000
v -3.0000 0.4200 -2.0000
v -1.8000 0.5500 -2.0000
v -2.6000 0.3200 0.1000
v -2.4000 -0.6500 -0.1000
v -2.8000 -0.7500 -2.0000
v -2.6000 0.3200 0.1000
v -2.8000 -0.7500 -2.0000
v -3.0000 0.4200 -2.0000
v -2.4000 -0.6500 -0.1000
v -1.4000 -0.5500 0.2000
v -1.7000 -0.6500 -2.0000
v -2.4000 -0.6500 -0.1000
v -1.7000 -0.6500 -2.0000
v -2.8000 -0.7500 -2.0000
v 2.3000 0.4900 0.9000
v 7.2000 0.3600 -2.2000
v 6.7000 0.3100 -3.7000
v 2.3000 0.4900 0.9000
v 6.7000 0.3100 -3.7000
v 2.3000 0.3200 -4.0000
v 2.3000 0.0100 0.9000
v 2.3000 0.0800 -4.0000
v 6.7000 0.2100 -3.7000
v 2.3000 0.0100 0.9000
v 6.7000 0.2100 -3.7000
v 7.2000 0.1600 -2.2000
v 2.3000 0.4900 0.9000
v 2.3000 0.0100 0.9000
v 7.2000 0.1600 -2.2000
v 2.3000 0.4900 0.9000
v 7.2000 0.1600 -2.2000
v 7.2000 0.3600 -2.2000
v 6.7000 0.3100 -3.7000
v 6.7000 0.2100 -3.7000
v 2.3000 0.0800 -4.0000
v 6.7000 0.3100 -3.7000
v 2.3000 0.0800 -4.0000
v 2.3000 0.3200 -4.0000
v 7.2000 0.3600 -2.2000
v 7.2000 0.1600 -2.2000
v 6.7000 0.2100 -3.7000
v 7.2000 0.3600 -2.2000
v 6.7000 0.2100 -3.7000
v 6.7000 0.3100 -3.7000
v -2.3000 0.4900 0.9000
v -2.3000 0.3200 -4.0000
v -6.7000 0.3100 -3.7000
v -2.3000 0.4900 0.9000
v -6.7000 0.3100 -3.7000
v -7.2000 0.3600 -2.2000
v -2.3000 0.0100 0.9000
v -7.2000 0.1600 -2.2000
v -6.7000 0.2100 -3.7000
v -2.3000 0.0100 0.9000
v -6.7000 0.2100 -3.7000
v -2.3000 0.0800 -4.0000
v -2.3000 0.4900 0.9000
v -7.2000 0.3600 -2.2000
v -7.2000 0.1600 -2.2000
v -2.3000 0.4900 0.9000
v -7.2000 0.1600 -2.2000
v -2.3000 0.0100 0.9000
v -6.7000 0.3100 -3.7000
v -2.3000 0.3200 -4.0000
v -2.3000 0.0800 -4.0000
v -6.7000 0.3100 -3.7000
v -2.3000 0.0800 -4.0000
v -6.7000 0.2100 -3.7000
v -7.2000 0.3600 -2.2000
v -6.7000 0.3100 -3.7000
v -6.7000 0.2100 -3.7000
v -7.2000 0.3600 -2.2000
v -6.7000 0.2100 -3.7000
v -7.2000 0.1600 -2.2000
v 1.4725 0.7366 -3.5000
v 2.2171 3.0190 -4.8000
v 2.2171 2.9590 -6.3000
v 1.4725 0.7366 -3.5000
v 2.2171 2.9590 -6.3000
v 1.4725 0.6766 -5.9000
v 1.2275 0.8234 -3.5000
v 1.2275 0.7634 -5.9000
v 2.0852 3.0057 -6.3000
v 1.2275 0.8234 -3.5000
v 2.0852 3.0057 -6.3000
v 2.0852 3.0657 -4.8000
v 1.2275 0.8234 -3.5000
v 2.0852 3.0657 -4.8000
v 2.2171 3.0190 -4.8000
v 1.2275 0.8234 -3.5000
v 2.2171 3.0190 -4.8000
v 1.4725 0.7366 -3.5000
v 1.4725 0.6766 -5.9000
v 2.2171 2.9590 -6.3000
v 2.0852 3.0057 -6.3000
v 1.4725 0.6766 -5.9000
v 2.0852 3.0057 -6.3000
v 1.2275 0.7634 -5.9000
v 2.0852 3.0657 -4.8000
v 2.0852 3.0057 -6.3000
v 2.2171 2.9590 -6.3000
v 2.0852 3.0657 -4.8000
v 2.2171 2.9590 -6.3000
v 2.2171 3.0190 -4.8000
v -1.2275 0.8234 -3.5000
v -1.2275 0.7634 -5.9000
v -2.0852 3.0057 -6.3000
v -1.2275 0.8234 -3.5000
v -2.0852 3.0057 -6.3000
v -2.0852 3.0657 -4.8000
v -1.4725 0.7366 -3.5000
v -2.2171 3.0190 -4.8000
v -2.2171 2.9590 -6.3000
v -1.4725 0.7366 -3.5000
v -2.2171 2.9590 -6.3000
v -1.4725 0.6766 -5.9000
v -1.4725 0.7366 -3.5000
v -1.2275 0.8234 -3.5000
v -2.0852 3.0657 -4.8000
v -1.4725 0.7366 -3.5000
v -2.0852 3.0657 -4.8000
v -2.2171 3.0190 -4.8000
v -1.2275 0.7634 -5.9000
v -1.4725 0.6766 -5.9000
v -2.2171 2.9590 -6.3000
v -1.2275 0.7634 -5.9000
v -2.2171 2.9590 -6.3000
v -2.0852 3.0057 -6.3000
v -2.2171 3.0190 -4.8000
v -2.0852 3.0657 -4.8000
v -2.0852 3.0057 -6.3000
v -2.2171 3.0190 -4.8000
v -2.0852 3.0057 -6.3000
v -2.2171 2.9590 -6.3000
v 1.5000 0.3200 -4.7000
v 4.0000 0.2900 -5.8000
v 3.5000 0.2700 -7.1000
v 1.5000 0.3200 -4.7000
v 3.5000 0.2700 -7.1000
v 1.4000 0.2700 -6.8000
v 1.5000 0.1200 -4.7000
v 1.4000 0.1700 -6.8000
v 3.5000 0.1700 -7.1000
v 1.5000 0.1200 -4.7000
v 3.5000 0.1700 -7.1000
v 4.0000 0.1500 -5.8000
v 1.5000 0.3200 -4.7000
v 1.5000 0.1200 -4.7000
v 4.0000 0.1500 -5.8000
v 1.5000 0.3200 -4.7000
v 4.0000 0.1500 -5.8000
v 4.0000 0.2900 -5.8000
v 3.5000 0.2700 -7.1000
v 3.5000 0.1700 -7.1000
v 1.4000 0.1700 -6.8000
v 3.5000 0.2700 -7.1000
v 1.4000 0.1700 -6.8000
v 1.4000 0.2700 -6.8000
v 4.0000 0.2900 -5.8000
v 4.0000 0.1500 -5.8000
v 3.5000 0.1700 -7.1000
v -1.5000 0.3200 -4.7000
v -1.4000 0.2700 -6.8000
v -3.5000 0.2700 -7.1000
v -1.5000 0.3200 -4.7000
v -3.5000 0.2700 -7.1000
v -4.0000 0.2900 -5.8000
v -1.5000 0.1200 -4.7000
v -4.0000 0.1500 -5.8000
v -3.5000 0.1700 -7.1000
v -1.5000 0.1200 -4.7000
v -3.5000 0.1700 -7.1000
v -1.4000 0.1700 -6.8000
v -1.5000 0.3200 -4.7000
v -4.0000 0.2900 -5.8000
v -4.0000 0.1500 -5.8000
v -1.5000 0.3200 -4.7000
v -4.0000 0.1500 -5.8000
v -1.5000 0.1200 -4.7000
v -3.5000 0.2700 -7.1000
v -1.4000 0.2700 -6.8000
v -1.4000 0.1700 -6.8000
v -3.5000 0.2700 -7.1000
v -1.4000 0.1700 -6.8000
v -3.5000 0.1700 -7.1000
v -4.0000 0.2900 -5.8000
v -3.5000 0.2700 -7.1000
v -3.5000 0.1700 -7.1000
v -4.0000 0.2900 -5.8000
v -3.5000 0.1700 -7.1000
v -4.0000 0.1500 -5.8000
v 0.8200 0.0500 -6.5000
v 0.6800 0.0500 -7.4500
v 0.6390 0.2826 -7.4500
v 0.8200 0.0500 -6.5000
v 0.6390 0.2826 -7.4500
v 0.7705 0.3305 -6.5000
v 0.6800 0.0500 -7.4500
v 0.4500 0.0500 -7.1000
v 0.4229 0.2039 -7.1000
v 0.6800 0.0500 -7.4500
v 0.4229 0.2039 -7.1000
v 0.6390 0.2826 -7.4500
v 0.7705 0.3305 -6.5000
v 0.6390 0.2826 -7.4500
v 0.5209 0.4871 -7.4500
v 0.7705 0.3305 -6.5000
v 0.5209 0.4871 -7.4500
v 0.6282 0.5771 -6.5000
v 0.6390 0.2826 -7.4500
v 0.4229 0.2039 -7.1000
v 0.3447 0.3393 -7.1000
v 0.6390 0.2826 -7.4500
v 0.3447 0.3393 -7.1000
v 0.5209 0.4871 -7.4500
v 0.6282 0.5771 -6.5000
v 0.5209 0.4871 -7.4500
v 0.3400 0.6389 -7.4500
v 0.6282 0.5771 -6.5000
v 0.3400 0.6389 -7.4500
v 0.4100 0.7601 -6.5000
v 0.5209 0.4871 -7.4500
v 0.3447 0.3393 -7.1000
v 0.2250 0.4397 -7.1000
v 0.5209 0.4871 -7.4500
v 0.2250 0.4397 -7.1000
v 0.3400 0.6389 -7.4500
v 0.4100 0.7601 -6.5000
v 0.3400 0.6389 -7.4500
v 0.1181 0.7197 -7.4500
v 0.4100 0.7601 -6.5000
v 0.1181 0.7197 -7.4500
v 0.1424 0.8575 -6.5000
v 0.3400 0.6389 -7.4500
v 0.2250 0.4397 -7.1000
v 0.0781 0.4932 -7.1000
v 0.3400 0.6389 -7.4500
v 0.0781 0.4932 -7.1000
v 0.1181 0.7197 -7.4500
v 0.1424 0.8575 -6.5000
v 0.1181 0.7197 -7.4500
v -0.1181 0.7197 -7.4500
v 0.1424 0.8575 -6.5000
v -0.1181 0.7197 -7.4500
v -0.1424 0.8575 -6.5000
v 0.1181 0.7197 -7.4500
v 0.0781 0.4932 -7.1000
v -0.0781 0.4932 -7.1000
v 0.1181 0.7197 -7.4500
v -0.0781 0.4932 -7.1000
v -0.1181 0.7197 -7.4500
v -0.1424 0.8575 -6.5000
v -0.1181 0.7197 -7.4500
v -0.3400 0.6389 -7.4500
v -0.1424 0.8575 -6.5000
v -0.3400 0.6389 -7.4500
v -0.4100 0.7601 -6.5000
v -0.1181 0.7197 -7.4500
v -0.0781 0.4932 -7.1000
v -0.2250 0.4397 -7.1000
v -0.1181 0.7197 -7.4500
v -0.2250 0.4397 -7.1000
v -0.3400 0.6389 -7.4500
v -0.4100 0.7601 -6.5000
v -0.3400 0.6389 -7.4500
v -0.5209 0.4871 -7.4500
v -0.4100 0.7601 -6.5000
v -0.5209 0.4871 -7.4500
v -0.6282 0.5771 -6.5000
v -0.3400 0.6389 -7.4500
v -0.2250 0.4397 -7.1000
v -0.3447 0.3393 -7.1000
v -0.3400 0.6389 -7.4500
v -0.3447 0.3393 -7.1000
v -0.5209 0.4871 -7.4500
v -0.6282 0.5771 -6.5000
v -0.5209 0.4871 -7.4500
v -0.6390 0.2826 -7.4500
v -0.6282 0.5771 -6.5000
v -0.6390 0.2826 -7.4500
v -0.7705 0.3305 -6.5000
v -0.5209 0.4871 -7.4500
v -0.3447 0.3393 -7.1000
v -0.4229 0.2039 -7.1000
v -0.5209 0.4871 -7.4500
v -0.4229 0.2039 -7.1000
v -0.6390 0.2826 -7.4500
v -0.7705 0.3305 -6.5000
v -0.6390 0.2826 -7.4500
v -0.6800 0.0500 -7.4500
v -0.7705 0.3305 -6.5000
v -0.6800 0.0500 -7.4500
v -0.8200 0.0500 -6.5000
v -0.6390 0.2826 -7.4500
v -0.4229 0.2039 -7.1000
v -0.4500 0.0500 -7.1000
v -0.6390 0.2826 -7.4500
v -0.4500 0.0500 -7.1000
v -0.6800 0.0500 -7.4500
v -0.8200 0.0500 -6.5000
v -0.6800 0.0500 -7.4500
v -0.6390 -0.1826 -7.4500
v -0.8200 0.0500 -6.5000
v -0.6390 -0.1826 -7.4500
v -0.7705 -0.2305 -6.5000
v -0.6800 0.0500 -7.4500
v -0.4500 0.0500 -7.1000
v -0.4229 -0.1039 -7.1000
v -0.6800 0.0500 -7.4500
v -0.4229 -0.1039 -7.1000
v -0.6390 -0.1826 -7.4500
v -0.7705 -0.2305 -6.5000
v -0.6390 -0.1826 -7.4500
v -0.5209 -0.3871 -7.4500
v -0.7705 -0.2305 -6.5000
v -0.5209 -0.3871 -7.4500
v -0.6282 -0.4771 -6.5000
v -0.6390 -0.1826 -7.4500
v -0.4229 -0.1039 -7.1000
v -0.3447 -0.2393 -7.1000
v -0.6390 -0.1826 -7.4500
v -0.3447 -0.2393 -7.1000
v -0.5209 -0.3871 -7.4500
v -0.6282 -0.4771 -6.5000
v -0.5209 -0.3871 -7.4500
v -0.3400 -0.5389 -7.4500
v -0.6282 -0.4771 -6.5000
v -0.3400 -0.5389 -7.4500
v -0.4100 -0.6601 -6.5000
v -0.5209 -0.3871 -7.4500
v -0.3447 -0.2393 -7.1000
v -0.2250 -0.3397 -7.1000
v -0.5209 -0.3871 -7.4500
v -0.2250 -0.3397 -7.1000
v -0.3400 -0.5389 -7.4500
v -0.4100 -0.6601 -6.5000
v -0.3400 -0.5389 -7.4500
v -0.1181 -0.6197 -7.4500
v -0.4100 -0.6601 -6.5000
v -0.1181 -0.6197 -7.4500
v -0.1424 -0.7575 -6.5000
v -0.3400 -0.5389 -7.4500
v -0.2250 -0.3397 -7.1000
v -0.0781 -0.3932 -7.1000
v -0.3400 -0.5389 -7.4500
v -0.0781 -0.3932 -7.1000
v -0.1181 -0.6197 -7.4500
v -0.1424 -0.7575 -6.5000
v -0.1181 -0.6197 -7.4500
v 0.1181 -0.6197 -7.4500
v -0.1424 -0.7575 -6.5000
v 0.1181 -0.6197 -7.4500
v 0.1424 -0.7575 -6.5000
v -0.1181 -0.6197 -7.4500
v -0.0781 -0.3932 -7.1000
v 0.0781 -0.3932 -7.1000
v -0.1181 -0.6197 -7.4500
v 0.0781 -0.3932 -7.1000
v 0.1181 -0.6197 -7.4500
v 0.1424 -0.7575 -6.5000
v 0.1181 -0.6197 -7.4500
v 0.3400 -0.5389 -7.4500
v 0.1424 -0.7575 -6.5000
v 0.3400 -0.5389 -7.4500
v 0.4100 -0.6601 -6.5000
v 0.1181 -0.6197 -7.4500
v 0.0781 -0.3932 -7.1000
v 0.2250 -0.3397 -7.1000
v 0.1181 -0.6197 -7.4500
v 0.2250 -0.3397 -7.1000
v 0.3400 -0.5389 -7.4500
v 0.4100 -0.6601 -6.5000
v 0.3400 -0.5389 -7.4500
v 0.5209 -0.3871 -7.4500
v 0.4100 -0.6601 -6.5000
v 0.5209 -0.3871 -7.4500
v 0.6282 -0.4771 -6.5000
v 0.3400 -0.5389 -7.4500
v 0.2250 -0.3397 -7.1000
v 0.3447 -0.2393 -7.1000
v 0.3400 -0.5389 -7.4500
v 0.3447 -0.2393 -7.1000
v 0.5209 -0.3871 -7.4500
v 0.6282 -0.4771 -6.5000
v 0.5209 -0.3871 -7.4500
v 0.6390 -0.1826 -7.4500
v 0.6282 -0.4771 -6.5000
v 0.6390 -0.1826 -7.4500
v 0.7705 -0.2305 -6.5000
v 0.5209 -0.3871 -7.4500
v 0.3447 -0.2393 -7.1000
v 0.4229 -0.1039 -7.1000
v 0.5209 -0.3871 -7.4500
v 0.4229 -0.1039 -7.1000
v 0.6390 -0.1826 -7.4500
v 0.7705 -0.2305 -6.5000
v 0.6390 -0.1826 -7.4500
v 0.6800 0.0500 -7.4500
v 0.7705 -0.2305 -6.5000
v 0.6800 0.0500 -7.4500
v 0.8200 0.0500 -6.5000
v 0.6390 -0.1826 -7.4500
v 0.4229 -0.1039 -7.1000
v 0.4500 0.0500 -7.1000
v 0.6390 -0.1826 -7.4500
v 0.4500 0.0500 -7.1000
v 0.6800 0.0500 -7.4500
v 0.0000 0.0500 -6.6500
v 0.4500 0.0500 -7.1000
v 0.4229 0.2039 -7.1000
v 0.0000 0.0500 -6.6500
v 0.4229 0.2039 -7.1000
v 0.3447 0.3393 -7.1000
v 0.0000 0.0500 -6.6500
v 0.3447 0.3393 -7.1000
v 0.2250 0.4397 -7.1000
v 0.0000 0.0500 -6.6500
v 0.2250 0.4397 -7.1000
v 0.0781 0.4932 -7.1000
v 0.0000 0.0500 -6.6500
v 0.0781 0.4932 -7.1000
v -0.0781 0.4932 -7.1000
v 0.0000 0.0500 -6.6500
v -0.0781 0.4932 -7.1000
v -0.2250 0.4397 -7.1000
v 0.0000 0.0500 -6.6500
v -0.2250 0.4397 -7.1000
v -0.3447 0.3393 -7.1000
v 0.0000 0.0500 -6.6500
v -0.3447 0.3393 -7.1000
v -0.4229 0.2039 -7.1000
v 0.0000 0.0500 -6.6500
v -0.4229 0.2039 -7.1000
v -0.4500 0.0500 -7.1000
v 0.0000 0.0500 -6.6500
v -0.4500 0.0500 -7.1000
v -0.4229 -0.1039 -7.1000
v 0.0000 0.0500 -6.6500
v -0.4229 -0.1039 -7.1000
v -0.3447 -0.2393 -7.1000
v 0.0000 0.0500 -6.6500
v -0.3447 -0.2393 -7.1000
v -0.2250 -0.3397 -7.1000
v 0.0000 0.0500 -6.6500
v -0.2250 -0.3397 -7.1000
v -0.0781 -0.3932 -7.1000
v 0.0000 0.0500 -6.6500
v -0.0781 -0.3932 -7.1000
v 0.0781 -0.3932 -7.1000
v 0.0000 0.0500 -6.6500
v 0.0781 -0.3932 -7.1000
v 0.2250 -0.3397 -7.1000
v 0.0000 0.0500 -6.6500
v 0.2250 -0.3397 -7.1000
v 0.3447 -0.2393 -7.1000
v 0.0000 0.0500 -6.6500
v 0.3447 -0.2393 -7.1000
v 0.4229 -0.1039 -7.1000
v 0.0000 0.0500 -6.6500
v 0.4229 -0.1039 -7.1000
v 0.4500 0.0500 -7.1000
v 0.0000 0.7000 -6.5000
v 0.8200 0.0500 -6.5000
v 0.7705 0.3305 -6.5000
v 0.0000 0.7000 -6.5000
v 0.7705 0.3305 -6.5000
v 1.1700 0.5250 -6.5000
v 1.1700 0.5250 -6.5000
v 0.7705 0.3305 -6.5000
v 0.6282 0.5771 -6.5000
v 1.1700 0.5250 -6.5000
v 0.6282 0.5771 -6.5000
v 0.4100 0.7601 -6.5000
v 1.1700 0.5250 -6.5000
v 0.4100 0.7601 -6.5000
v 1.8000 0.0000 -6.5000
v 1.8000 0.0000 -6.5000
v 0.4100 0.7601 -6.5000
v 0.1424 0.8575 -6.5000
v 1.8000 0.0000 -6.5000
v 0.1424 0.8575 -6.5000
v -0.4100 0.7601 -6.5000
v 1.8000 0.0000 -6.5000
v -0.4100 0.7601 -6.5000
v 1.1700 -0.5250 -6.5000
v 1.1700 -0.5250 -6.5000
v -0.4100 0.7601 -6.5000
v -0.6282 0.5771 -6.5000
v 1.1700 -0.5250 -6.5000
v -0.6282 0.5771 -6.5000
v -0.7705 0.3305 -6.5000
v 1.1700 -0.5250 -6.5000
v -0.7705 0.3305 -6.5000
v 0.0000 -0.7000 -6.5000
v 0.0000 -0.7000 -6.5000
v -0.7705 0.3305 -6.5000
v -0.8200 0.0500 -6.5000
v 0.0000 -0.7000 -6.5000
v -0.8200 0.0500 -6.5000
v -0.7705 -0.2305 -6.5000
v 0.0000 -0.7000 -6.5000
v -0.7705 -0.2305 -6.5000
v -1.1700 -0.5250 -6.5000
v -1.1700 -0.5250 -6.5000
v -0.7705 -0.2305 -6.5000
v -0.6282 -0.4771 -6.5000
v -1.1700 -0.5250 -6.5000
v -0.6282 -0.4771 -6.5000
v -0.4100 -0.6601 -6.5000
v -1.1700 -0.5250 -6.5000
v -0.4100 -0.6601 -6.5000
v -1.8000 0.0000 -6.5000
v -1.8000 0.0000 -6.5000
v -0.4100 -0.6601 -6.5000
v 0.1424 -0.7575 -6.5000
v -1.8000 0.0000 -6.5000
v 0.1424 -0.7575 -6.5000
v 0.4100 -0.6601 -6.5000
v -1.8000 0.0000 -6.5000
v 0.4100 -0.6601 -6.5000
v -1.1700 0.5250 -6.5000
v -1.1700 0.5250 -6.5000
v 0.4100 -0.6601 -6.5000
v 0.6282 -0.4771 -6.5000
v -1.1700 0.5250 -6.5000
v 0.6282 -0.4771 -6.5000
v 0.7705 -0.2305 -6.5000
v -1.1700 0.5250 -6.5000
v 0.7705 -0.2305 -6.5000
v 0.0000 0.7000 -6.5000
v 0.0000 0.7000 -6.5000
v 0.7705 -0.2305 -6.5000
v 0.8200 0.0500 -6.5000
v 1.0000 -1.0200 1.2000
v 1.8000 -0.9500 1.0000
v 1.7000 -0.9000 -1.6000
v 1.0000 -1.0200 1.2000
v 1.7000 -0.9000 -1.6000
v 0.9000 -0.9800 -1.8000
v -1.0000 -1.0200 1.2000
v -1.8000 -0.9500 1.0000
v -1.7000 -0.9000 -1.6000
v -1.0000 -1.0200 1.2000
v -1.7000 -0.9000 -1.6000
v -0.9000 -0.9800 -1.8000

vn 0.1758 0.9140 0.3656
vn 0.1758 0.9140 0.3656
vn 0.1758 0.9140 0.3656
vn 0.6311 0.5890 0.5048
vn 0.6311 0.5890 0.5048
vn 0.6311 0.5890 0.5048
vn 0.6311 -0.5890 0.5048
vn 0.6311 -0.5890 0.5048
vn 0.6311 -0.5890 0.5048
vn 0.1758 -0.9140 0.3656
vn 0.1758 -0.9140 0.3656
vn 0.1758 -0.9140 0.3656
vn -0.1758 -0.9140 0.3656
vn -0.1758 -0.9140 0.3656
vn -0.1758 -0.9140 0.3656
vn -0.6311 -0.5890 0.5048
vn -0.6311 -0.5890 0.5048
vn -0.6311 -0.5890 0.5048
vn -0.6311 0.5890 0.5048
vn -0.6311 0.5890 0.5048
vn -0.6311 0.5890 0.5048
vn -0.1758 0.9140 0.3656
vn -0.1758 0.9140 0.3656
vn -0.1758 0.9140 0.3656
vn 0.1677 0.8722 0.4595
vn 0.1677 0.8722 0.4595
vn 0.1677 0.8722 0.4595
vn 0.1403 0.8856 0.4428
vn 0.1403 0.8856 0.4428
vn 0.1403 0.8856 0.4428
vn 0.5589 0.5216 0.6446
vn 0.5589 0.5216 0.6446
vn 0.5589 0.5216 0.6446
vn 0.5255 0.5956 0.6076
vn 0.5255 0.5956 0.6076
vn 0.5255 0.5956 0.6076
vn 0.5960 -0.5563 0.5791
vn 0.5960 -0.5563 0.5791
vn 0.5960 -0.5563 0.5791
vn 0.5459 -0.6186 0.5651
vn 0.5459 -0.6186 0.5651
vn 0.5459 -0.6186 0.5651
vn 0.1766 -0.9183 0.3542
vn 0.1766 -0.9183 0.3542
vn 0.1766 -0.9183 0.3542
vn 0.1461 -0.9222 0.3580
vn 0.1461 -0.9222 0.3580
vn 0.1461 -0.9222 0.3580
vn -0.1750 -0.9102 0.3754
vn -0.1750 -0.9102 0.3754
vn -0.1750 -0.9102 0.3754
vn -0.1462 -0.9230 0.3560
vn -0.1462 -0.9230 0.3560
vn -0.1462 -0.9230 0.3560
vn -0.5806 -0.5419 0.6077
vn -0.5806 -0.5419 0.6077
vn -0.5806 -0.5419 0.6077
vn -0.5473 -0.6203 0.5619
vn -0.5473 -0.6203 0.5619
vn -0.5473 -0.6203 0.5619
vn -0.5741 0.5358 0.6191
vn -0.5741 0.5358 0.6191
vn -0.5741 0.5358 0.6191
vn -0.5241 0.5939 0.6104
vn -0.5241 0.5939 0.6104
vn -0.5241 0.5939 0.6104
vn -0.1695 0.8815 0.4407
vn -0.1695 0.8815 0.4407
vn -0.1695 0.8815 0.4407
vn -0.1401 0.8847 0.4446
vn -0.1401 0.8847 0.4446
vn -0.1401 0.8847 0.4446
vn 0.1494 0.9435 0.2957
vn 0.1494 0.9435 0.2957
vn 0.1494 0.9435 0.2957
vn 0.1433 0.9459 0.2910
vn 0.1433 0.9459 0.2910
vn 0.1433 0.9459 0.2910
vn 0.6000 0.6800 0.4215
vn 0.6000 0.6800 0.4215
vn 0.6000 0.6800 0.4215
vn 0.5884 0.6971 0.4096
vn 0.5884 0.6971 0.4096
vn 0.5884 0.6971 0.4096
vn 0.6185 -0.7009 0.3552
vn 0.6185 -0.7009 0.3552
vn 0.6185 -0.7009 0.3552
vn 0.6535 -0.6709 0.3505
vn 0.6535 -0.6709 0.3505
vn 0.6535 -0.6709 0.3505
vn 0.1525 -0.9630 0.2222
vn 0.1525 -0.9630 0.2222
vn 0.1525 -0.9630 0.2222
vn 0.1682 -0.9620 0.2153
vn 0.1682 -0.9620 0.2153
vn 0.1682 -0.9620 0.2153
vn -0.1529 -0.9657 0.2097
vn -0.1529 -0.9657 0.2097
vn -0.1529 -0.9657 0.2097
vn -0.1679 -0.9606 0.2217
vn -0.1679 -0.9606 0.2217
vn -0.1679 -0.9606 0.2217
vn -0.6246 -0.7079 0.3299
vn -0.6246 -0.7079 0.3299
vn -0.6246 -0.7079 0.3299
vn -0.6502 -0.6675 0.3628
vn -0.6502 -0.6675 0.3628
vn -0.6502 -0.6675 0.3628
vn -0.6029 0.6833 0.4120
vn -0.6029 0.6833 0.4120
vn -0.6029 0.6833 0.4120
vn -0.5870 0.6953 0.4147
vn -0.5870 0.6953 0.4147
vn -0.5870 0.6953 0.4147
vn -0.1497 0.9450 0.2908
vn -0.1497 0.9450 0.2908
vn -0.1497 0.9450 0.2908
vn -0.1432 0.9452 0.2936
vn -0.1432 0.9452 0.2936
vn -0.1432 0.9452 0.2936
vn 0.1451 0.9577 0.2484
vn 0.1451 0.9577 0.2484
vn 0.1451 0.9577 0.2484
vn 0.1517 0.9550 0.2547
vn 0.1517 0.9550 0.2547
vn 0.1517 0.9550 0.2547
vn 0.6125 0.7255 0.3138
vn 0.6125 0.7255 0.3138
vn 0.6125 0.7255 0.3138
vn 0.6258 0.7070 0.3294
vn 0.6258 0.7070 0.3294
vn 0.6258 0.7070 0.3294
vn 0.6759 -0.6939 0.2482
vn 0.6759 -0.6939 0.2482
vn 0.6759 -0.6939 0.2482
vn 0.6775 -0.6926 0.2474
vn 0.6775 -0.6926 0.2474
vn 0.6775 -0.6926 0.2474
vn 0.1707 -0.9767 0.1302
vn 0.1707 -0.9767 0.1302
vn 0.1707 -0.9767 0.1302
vn 0.1715 -0.9766 0.1297
vn 0.1715 -0.9766 0.1297
vn 0.1715 -0.9766 0.1297
vn -0.1708 -0.9768 0.1295
vn -0.1708 -0.9768 0.1295
vn -0.1708 -0.9768 0.1295
vn -0.1715 -0.9765 0.1302
vn -0.1715 -0.9765 0.1302
vn -0.1715 -0.9765 0.1302
vn -0.6762 -0.6942 0.2467
vn -0.6762 -0.6942 0.2467
vn -0.6762 -0.6942 0.2467
vn -0.6774 -0.6924 0.2485
vn -0.6774 -0.6924 0.2485
vn -0.6774 -0.6924 0.2485
vn -0.6094 0.7219 0.3280
vn -0.6094 0.7219 0.3280
vn -0.6094 0.7219 0.3280
vn -0.6280 0.7096 0.3195
vn -0.6280 0.7096 0.3195
vn -0.6280 0.7096 0.3195
vn -0.1449 0.9560 0.2549
vn -0.1449 0.9560 0.2549
vn -0.1449 0.9560 0.2549
vn -0.1519 0.9563 0.2500
vn -0.1519 0.9563 0.2500
vn -0.1519 0.9563 0.2500
vn 0.1548 0.9743 0.1634
vn 0.1548 0.9743 0.1634
vn 0.1548 0.9743 0.1634
vn 0.1540 0.9746 0.1624
vn 0.1540 0.9746 0.1624
vn 0.1540 0.9746 0.1624
vn 0.6436 0.7272 0.2388
vn 0.6436 0.7272 0.2388
vn 0.6436 0.7272 0.2388
vn 0.6420 0.7294 0.2363
vn 0.6420 0.7294 0.2363
vn 0.6420 0.7294 0.2363
vn 0.6858 -0.7011 0.1953
vn 0.6858 -0.7011 0.1953
vn 0.6858 -0.7011 0.1953
vn 0.6770 -0.7077 0.2021
vn 0.6770 -0.7077 0.2021
vn 0.6770 -0.7077 0.2021
vn 0.1721 -0.9802 0.0980
vn 0.1721 -0.9802 0.0980
vn 0.1721 -0.9802 0.0980
vn 0.1683 -0.9805 0.1018
vn 0.1683 -0.9805 0.1018
vn 0.1683 -0.9805 0.1018
vn -0.1720 -0.9797 0.1026
vn -0.1720 -0.9797 0.1026
vn -0.1720 -0.9797 0.1026
vn -0.1684 -0.9808 0.0981
vn -0.1684 -0.9808 0.0981
vn -0.1684 -0.9808 0.0981
vn -0.6845 -0.6997 0.2048
vn -0.6845 -0.6997 0.2048
vn -0.6845 -0.6997 0.2048
vn -0.6781 -0.7088 0.1942
vn -0.6781 -0.7088 0.1942
vn -0.6781 -0.7088 0.1942
vn -0.6440 0.7276 0.2365
vn -0.6440 0.7276 0.2365
vn -0.6440 0.7276 0.2365
vn -0.6417 0.7291 0.2382
vn -0.6417 0.7291 0.2382
vn -0.6417 0.7291 0.2382
vn -0.1548 0.9745 0.1624
vn -0.1548 0.9745 0.1624
vn -0.1548 0.9745 0.1624
vn -0.1539 0.9745 0.1633
vn -0.1539 0.9745 0.1633
vn -0.1539 0.9745 0.1633
vn 0.1558 0.9861 0.0584
vn 0.1558 0.9861 0.0584
vn 0.1558 0.9861 0.0584
vn 0.1384 0.9898 0.0330
vn 0.1384 0.9898 0.0330
vn 0.1384 0.9898 0.0330
vn 0.6452 0.7331 0.2151
vn 0.6452 0.7331 0.2151
vn 0.6452 0.7331 0.2151
vn 0.6076 0.7797 0.1511
vn 0.6076 0.7797 0.1511
vn 0.6076 0.7797 0.1511
vn 0.6796 -0.7104 0.1828
vn 0.6796 -0.7104 0.1828
vn 0.6796 -0.7104 0.1828
vn 0.6438 -0.7345 0.2146
vn 0.6438 -0.7345 0.2146
vn 0.6438 -0.7345 0.2146
vn 0.1689 -0.9835 0.0656
vn 0.1689 -0.9835 0.0656
vn 0.1689 -0.9835 0.0656
vn 0.1549 -0.9845 0.0828
vn 0.1549 -0.9845 0.0828
vn 0.1549 -0.9845 0.0828
vn -0.1686 -0.9820 0.0856
vn -0.1686 -0.9820 0.0856
vn -0.1686 -0.9820 0.0856
vn -0.1551 -0.9857 0.0657
vn -0.1551 -0.9857 0.0657
vn -0.1551 -0.9857 0.0657
vn -0.6736 -0.7042 0.2245
vn -0.6736 -0.7042 0.2245
vn -0.6736 -0.7042 0.2245
vn -0.6487 -0.7400 0.1776
vn -0.6487 -0.7400 0.1776
vn -0.6487 -0.7400 0.1776
vn -0.6522 0.7410 0.1598
vn -0.6522 0.7410 0.1598
vn -0.6522 0.7410 0.1598
vn -0.6021 0.7727 0.2007
vn -0.6021 0.7727 0.2007
vn -0.6021 0.7727 0.2007
vn -0.1559 0.9872 0.0329
vn -0.1559 0.9872 0.0329
vn -0.1559 0.9872 0.0329
vn -0.1383 0.9889 0.0547
vn -0.1383 0.9889 0.0547
vn -0.1383 0.9889 0.0547
vn 0.1385 0.9904 -0.0038
vn 0.1385 0.9904 -0.0038
vn 0.1385 0.9904 -0.0038
vn 0.1202 0.9922 -0.0331
vn 0.1202 0.9922 -0.0331
vn 0.1202 0.9922 -0.0331
vn 0.6084 0.7808 0.1420
vn 0.6084 0.7808 0.1420
vn 0.6084 0.7808 0.1420
vn 0.5584 0.8271 0.0640
vn 0.5584 0.8271 0.0640
vn 0.5584 0.8271 0.0640
vn 0.6559 -0.7482 0.0995
vn 0.6559 -0.7482 0.0995
vn 0.6559 -0.7482 0.0995
vn 0.6147 -0.7756 0.1434
vn 0.6147 -0.7756 0.1434
vn 0.6147 -0.7756 0.1434
vn 0.1554 -0.9878 0.0000
vn 0.1554 -0.9878 0.0000
vn 0.1554 -0.9878 0.0000
vn 0.1408 -0.9898 0.0214
vn 0.1408 -0.9898 0.0214
vn 0.1408 -0.9898 0.0214
vn -0.1554 -0.9876 0.0236
vn -0.1554 -0.9876 0.0236
vn -0.1554 -0.9876 0.0236
vn -0.1408 -0.9900 -0.0000
vn -0.1408 -0.9900 -0.0000
vn -0.1408 -0.9900 -0.0000
vn -0.6515 -0.7432 0.1520
vn -0.6515 -0.7432 0.1520
vn -0.6515 -0.7432 0.1520
vn -0.6184 -0.7802 0.0938
vn -0.6184 -0.7802 0.0938
vn -0.6184 -0.7802 0.0938
vn -0.6130 0.7867 0.0733
vn -0.6130 0.7867 0.0733
vn -0.6130 0.7867 0.0733
vn -0.5548 0.8218 0.1295
vn -0.5548 0.8218 0.1295
vn -0.5548 0.8218 0.1295
vn -0.1384 0.9898 -0.0330
vn -0.1384 0.9898 -0.0330
vn -0.1384 0.9898 -0.0330
vn -0.1203 0.9927 -0.0066
vn -0.1203 0.9927 -0.0066
vn -0.1203 0.9927 -0.0066
vn 0.1201 0.9908 -0.0630
vn 0.1201 0.9908 -0.0630
vn 0.1201 0.9908 -0.0630
vn 0.1181 0.9908 -0.0661
vn 0.1181 0.9908 -0.0661
vn 0.1181 0.9908 -0.0661
vn 0.5584 0.8271 -0.0648
vn 0.5584 0.8271 -0.0648
vn 0.5584 0.8271 -0.0648
vn 0.5517 0.8309 -0.0724
vn 0.5517 0.8309 -0.0724
vn 0.5517 0.8309 -0.0724
vn 0.6206 -0.7831 -0.0399
vn 0.6206 -0.7831 -0.0399
vn 0.6206 -0.7831 -0.0399
vn 0.6023 -0.7982 -0.0135
vn 0.6023 -0.7982 -0.0135
vn 0.6023 -0.7982 -0.0135
vn 0.1408 -0.9895 -0.0330
vn 0.1408 -0.9895 -0.0330
vn 0.1408 -0.9895 -0.0330
vn 0.1342 -0.9907 -0.0223
vn 0.1342 -0.9907 -0.0223
vn 0.1342 -0.9907 -0.0223
vn -0.1408 -0.9898 -0.0226
vn -0.1408 -0.9898 -0.0226
vn -0.1408 -0.9898 -0.0226
vn -0.1341 -0.9904 -0.0330
vn -0.1341 -0.9904 -0.0330
vn -0.1341 -0.9904 -0.0330
vn -0.6211 -0.7836 -0.0153
vn -0.6211 -0.7836 -0.0153
vn -0.6211 -0.7836 -0.0153
vn -0.6018 -0.7976 -0.0394
vn -0.6018 -0.7976 -0.0394
vn -0.6018 -0.7976 -0.0394
vn -0.5581 0.8266 -0.0724
vn -0.5581 0.8266 -0.0724
vn -0.5581 0.8266 -0.0724
vn -0.5520 0.8313 -0.0645
vn -0.5520 0.8313 -0.0645
vn -0.5520 0.8313 -0.0645
vn -0.1200 0.9906 -0.0660
vn -0.1200 0.9906 -0.0660
vn -0.1200 0.9906 -0.0660
vn -0.1181 0.9910 -0.0629
vn -0.1181 0.9910 -0.0629
vn -0.1181 0.9910 -0.0629
vn 0.1180 0.9903 -0.0731
vn 0.1180 0.9903 -0.0731
vn 0.1180 0.9903 -0.0731
vn 0.1230 0.9902 -0.0660
vn 0.1230 0.9902 -0.0660
vn 0.1230 0.9902 -0.0660
vn 0.5479 0.8252 -0.1371
vn 0.5479 0.8252 -0.1371
vn 0.5479 0.8252 -0.1371
vn 0.5650 0.8161 -0.1211
vn 0.5650 0.8161 -0.1211
vn 0.5650 0.8161 -0.1211
vn 0.5986 -0.7933 -0.1109
vn 0.5986 -0.7933 -0.1109
vn 0.5986 -0.7933 -0.1109
vn 0.5847 -0.8062 -0.0901
vn 0.5847 -0.8062 -0.0901
vn 0.5847 -0.8062 -0.0901
vn 0.1339 -0.9888 -0.0659
vn 0.1339 -0.9888 -0.0659
vn 0.1339 -0.9888 -0.0659
vn 0.1289 -0.9900 -0.0580
vn 0.1289 -0.9900 -0.0580
vn 0.1289 -0.9900 -0.0580
vn -0.1340 -0.9892 -0.0586
vn -0.1340 -0.9892 -0.0586
vn -0.1340 -0.9892 -0.0586
vn -0.1288 -0.9895 -0.0660
vn -0.1288 -0.9895 -0.0660
vn -0.1288 -0.9895 -0.0660
vn -0.5997 -0.7948 -0.0934
vn -0.5997 -0.7948 -0.0934
vn -0.5997 -0.7948 -0.0934
vn -0.5836 -0.8046 -0.1094
vn -0.5836 -0.8046 -0.1094
vn -0.5836 -0.8046 -0.1094
vn -0.5492 0.8271 -0.1196
vn -0.5492 0.8271 -0.1196
vn -0.5492 0.8271 -0.1196
vn -0.5636 0.8141 -0.1399
vn -0.5636 0.8141 -0.1399
vn -0.5636 0.8141 -0.1399
vn -0.1181 0.9908 -0.0661
vn -0.1181 0.9908 -0.0661
vn -0.1181 0.9908 -0.0661
vn -0.1230 0.9897 -0.0737
vn -0.1230 0.9897 -0.0737
vn -0.1230 0.9897 -0.0737
vn 0.1217 0.9796 -0.1596
vn 0.1217 0.9796 -0.1596
vn 0.1217 0.9796 -0.1596
vn 0.1186 0.9794 -0.1632
vn 0.1186 0.9794 -0.1632
vn 0.1186 0.9794 -0.1632
vn 0.5540 0.8002 -0.2298
vn 0.5540 0.8002 -0.2298
vn 0.5540 0.8002 -0.2298
vn 0.5433 0.8054 -0.2369
vn 0.5433 0.8054 -0.2369
vn 0.5433 0.8054 -0.2369
vn 0.5785 -0.7976 -0.1711
vn 0.5785 -0.7976 -0.1711
vn 0.5785 -0.7976 -0.1711
vn 0.5910 -0.7838 -0.1906
vn 0.5910 -0.7838 -0.1906
vn 0.5910 -0.7838 -0.1906
vn 0.1288 -0.9895 -0.0660
vn 0.1288 -0.9895 -0.0660
vn 0.1288 -0.9895 -0.0660
vn 0.1337 -0.9883 -0.0731
vn 0.1337 -0.9883 -0.0731
vn 0.1337 -0.9883 -0.0731
vn -0.1288 -0.9891 -0.0719
vn -0.1288 -0.9891 -0.0719
vn -0.1288 -0.9891 -0.0719
vn -0.1338 -0.9888 -0.0659
vn -0.1338 -0.9888 -0.0659
vn -0.1338 -0.9888 -0.0659
vn -0.5770 -0.7955 -0.1850
vn -0.5770 -0.7955 -0.1850
vn -0.5770 -0.7955 -0.1850
vn -0.5928 -0.7863 -0.1741
vn -0.5928 -0.7863 -0.1741
vn -0.5928 -0.7863 -0.1741
vn -0.5528 0.7985 -0.2382
vn -0.5528 0.7985 -0.2382
vn -0.5528 0.7985 -0.2382
vn -0.5447 0.8074 -0.2266
vn -0.5447 0.8074 -0.2266
vn -0.5447 0.8074 -0.2266
vn -0.1217 0.9791 -0.1632
vn -0.1217 0.9791 -0.1632
vn -0.1217 0.9791 -0.1632
vn -0.1187 0.9801 -0.1590
vn -0.1187 0.9801 -0.1590
vn -0.1187 0.9801 -0.1590
vn 0.1181 0.9757 -0.1843
vn 0.1181 0.9757 -0.1843
vn 0.1181 0.9757 -0.1843
vn 0.1460 0.9758 -0.1626
vn 0.1460 0.9758 -0.1626
vn 0.1460 0.9758 -0.1626
vn 0.5209 0.7721 -0.3640
vn 0.5209 0.7721 -0.3640
vn 0.5209 0.7721 -0.3640
vn 0.6026 0.7232 -0.3375
vn 0.6026 0.7232 -0.3375
vn 0.6026 0.7232 -0.3375
vn 0.5795 -0.7686 -0.2709
vn 0.5795 -0.7686 -0.2709
vn 0.5795 -0.7686 -0.2709
vn 0.6074 -0.7289 -0.3159
vn 0.6074 -0.7289 -0.3159
vn 0.6074 -0.7289 -0.3159
vn 0.1335 -0.9861 -0.0986
vn 0.1335 -0.9861 -0.0986
vn 0.1335 -0.9861 -0.0986
vn 0.1470 -0.9825 -0.1146
vn 0.1470 -0.9825 -0.1146
vn 0.1470 -0.9825 -0.1146
vn -0.1333 -0.9850 -0.1094
vn -0.1333 -0.9850 -0.1094
vn -0.1333 -0.9850 -0.1094
vn -0.1472 -0.9842 -0.0984
vn -0.1472 -0.9842 -0.0984
vn -0.1472 -0.9842 -0.0984
vn -0.5754 -0.7631 -0.2943
vn -0.5754 -0.7631 -0.2943
vn -0.5754 -0.7631 -0.2943
vn -0.6141 -0.7369 -0.2825
vn -0.6141 -0.7369 -0.2825
vn -0.6141 -0.7369 -0.2825
vn -0.5302 0.7859 -0.3181
vn -0.5302 0.7859 -0.3181
vn -0.5302 0.7859 -0.3181
vn -0.5870 0.7044 -0.3991
vn -0.5870 0.7044 -0.3991
vn -0.5870 0.7044 -0.3991
vn -0.1186 0.9794 -0.1632
vn -0.1186 0.9794 -0.1632
vn -0.1186 0.9794 -0.1632
vn -0.1451 0.9702 -0.1940
vn -0.1451 0.9702 -0.1940
vn -0.1451 0.9702 -0.1940
vn -0.0000 -0.9821 -0.1881
vn -0.0000 -0.9821 -0.1881
vn -0.0000 -0.9821 -0.1881
vn -0.8433 -0.3377 -0.4181
vn -0.8433 -0.3377 -0.4181
vn -0.8433 -0.3377 -0.4181
vn -0.0000 -0.9362 -0.3514
vn -0.0000 -0.9362 -0.3514
vn -0.0000 -0.9362 -0.3514
vn -0.5605 -0.7222 -0.4052
vn -0.5605 -0.7222 -0.4052
vn -0.5605 -0.7222 -0.4052
vn -0.0000 -0.8868 -0.4622
vn -0.0000 -0.8868 -0.4622
vn -0.0000 -0.8868 -0.4622
vn -0.3292 -0.8324 -0.4458
vn -0.3292 -0.8324 -0.4458
vn -0.3292 -0.8324 -0.4458
vn -0.0000 -0.8518 -0.5238
vn -0.0000 -0.8518 -0.5238
vn -0.0000 -0.8518 -0.5238
vn -0.1717 -0.8520 -0.4946
vn -0.1717 -0.8520 -0.4946
vn -0.1717 -0.8520 -0.4946
vn -0.0000 -0.8395 -0.5433
vn -0.0000 -0.8395 -0.5433
vn -0.0000 -0.8395 -0.5433
vn -0.0531 -0.8470 -0.5290
vn -0.0531 -0.8470 -0.5290
vn -0.0531 -0.8470 -0.5290
vn -0.0000 -0.8518 -0.5238
vn -0.0000 -0.8518 -0.5238
vn -0.0000 -0.8518 -0.5238
vn 0.0525 -0.8384 -0.5426
vn 0.0525 -0.8384 -0.5426
vn 0.0525 -0.8384 -0.5426
vn -0.0000 -0.8868 -0.4622
vn -0.0000 -0.8868 -0.4622
vn -0.0000 -0.8868 -0.4622
vn 0.1669 -0.8282 -0.5351
vn 0.1669 -0.8282 -0.5351
vn 0.1669 -0.8282 -0.5351
vn -0.0000 -0.9362 -0.3514
vn -0.0000 -0.9362 -0.3514
vn -0.0000 -0.9362 -0.3514
vn 0.3163 -0.7999 -0.5100
vn 0.3163 -0.7999 -0.5100
vn 0.3163 -0.7999 -0.5100
vn -0.0000 -0.9821 -0.1881
vn -0.0000 -0.9821 -0.1881
vn -0.0000 -0.9821 -0.1881
vn 0.5384 -0.6937 -0.4785
vn 0.5384 -0.6937 -0.4785
vn 0.5384 -0.6937 -0.4785
vn 0.0000 -0.9999 0.0122
vn 0.0000 -0.9999 0.0122
vn 0.0000 -0.9999 0.0122
vn 0.8259 -0.3308 -0.4566
vn 0.8259 -0.3308 -0.4566
vn 0.8259 -0.3308 -0.4566
vn -0.8467 -0.3391 -0.4099
vn -0.8467 -0.3391 -0.4099
vn -0.8467 -0.3391 -0.4099
vn -0.8852 -0.2487 -0.3932
vn -0.8852 -0.2487 -0.3932
vn -0.8852 -0.2487 -0.3932
vn -0.5600 -0.7215 -0.4074
vn -0.5600 -0.7215 -0.4074
vn -0.5600 -0.7215 -0.4074
vn -0.6869 -0.6210 -0.3775
vn -0.6869 -0.6210 -0.3775
vn -0.6869 -0.6210 -0.3775
vn -0.3330 -0.8421 -0.4241
vn -0.3330 -0.8421 -0.4241
vn -0.3330 -0.8421 -0.4241
vn -0.4521 -0.8021 -0.3902
vn -0.4521 -0.8021 -0.3902
vn -0.4521 -0.8021 -0.3902
vn -0.1772 -0.8794 -0.4419
vn -0.1772 -0.8794 -0.4419
vn -0.1772 -0.8794 -0.4419
vn -0.2511 -0.8744 -0.4151
vn -0.2511 -0.8744 -0.4151
vn -0.2511 -0.8744 -0.4151
vn -0.0559 -0.8929 -0.4469
vn -0.0559 -0.8929 -0.4469
vn -0.0559 -0.8929 -0.4469
vn -0.0800 -0.8963 -0.4363
vn -0.0800 -0.8963 -0.4363
vn -0.0800 -0.8963 -0.4363
vn 0.0563 -0.8990 -0.4343
vn 0.0563 -0.8990 -0.4343
vn 0.0563 -0.8990 -0.4343
vn 0.0796 -0.8914 -0.4461
vn 0.0796 -0.8914 -0.4461
vn 0.0796 -0.8914 -0.4461
vn 0.1806 -0.8963 -0.4050
vn 0.1806 -0.8963 -0.4050
vn 0.1806 -0.8963 -0.4050
vn 0.2474 -0.8615 -0.4433
vn 0.2474 -0.8615 -0.4433
vn 0.2474 -0.8615 -0.4433
vn 0.3420 -0.8649 -0.3674
vn 0.3420 -0.8649 -0.3674
vn 0.3420 -0.8649 -0.3674
vn 0.4430 -0.7860 -0.4312
vn 0.4430 -0.7860 -0.4312
vn 0.4430 -0.7860 -0.4312
vn 0.5755 -0.7415 -0.3449
vn 0.5755 -0.7415 -0.3449
vn 0.5755 -0.7415 -0.3449
vn 0.6739 -0.6092 -0.4179
vn 0.6739 -0.6092 -0.4179
vn 0.6739 -0.6092 -0.4179
vn 0.8594 -0.3442 -0.3781
vn 0.8594 -0.3442 -0.3781
vn 0.8594 -0.3442 -0.3781
vn 0.8775 -0.2466 -0.4112
vn 0.8775 -0.2466 -0.4112
vn 0.8775 -0.2466 -0.4112
vn -0.9317 -0.2618 -0.2517
vn -0.9317 -0.2618 -0.2517
vn -0.9317 -0.2618 -0.2517
vn -0.9409 -0.2362 -0.2427
vn -0.9409 -0.2362 -0.2427
vn -0.9409 -0.2362 -0.2427
vn -0.7199 -0.6508 -0.2413
vn -0.7199 -0.6508 -0.2413
vn -0.7199 -0.6508 -0.2413
vn -0.7588 -0.6128 -0.2207
vn -0.7588 -0.6128 -0.2207
vn -0.7588 -0.6128 -0.2207
vn -0.4764 -0.8452 -0.2424
vn -0.4764 -0.8452 -0.2424
vn -0.4764 -0.8452 -0.2424
vn -0.5206 -0.8251 -0.2195
vn -0.5206 -0.8251 -0.2195
vn -0.5206 -0.8251 -0.2195
vn -0.2675 -0.9313 -0.2472
vn -0.2675 -0.9313 -0.2472
vn -0.2675 -0.9313 -0.2472
vn -0.2978 -0.9265 -0.2298
vn -0.2978 -0.9265 -0.2298
vn -0.2978 -0.9265 -0.2298
vn -0.0861 -0.9650 -0.2477
vn -0.0861 -0.9650 -0.2477
vn -0.0861 -0.9650 -0.2477
vn -0.0965 -0.9657 -0.2411
vn -0.0965 -0.9657 -0.2411
vn -0.0965 -0.9657 -0.2411
vn 0.0863 -0.9668 -0.2405
vn 0.0863 -0.9668 -0.2405
vn 0.0863 -0.9668 -0.2405
vn 0.0963 -0.9641 -0.2474
vn 0.0963 -0.9641 -0.2474
vn 0.0963 -0.9641 -0.2474
vn 0.2688 -0.9360 -0.2271
vn 0.2688 -0.9360 -0.2271
vn 0.2688 -0.9360 -0.2271
vn 0.2965 -0.9224 -0.2475
vn 0.2965 -0.9224 -0.2475
vn 0.2965 -0.9224 -0.2475
vn 0.4796 -0.8510 -0.2138
vn 0.4796 -0.8510 -0.2138
vn 0.4796 -0.8510 -0.2138
vn 0.5174 -0.8202 -0.2441
vn 0.5174 -0.8202 -0.2441
vn 0.5174 -0.8202 -0.2441
vn 0.7247 -0.6551 -0.2135
vn 0.7247 -0.6551 -0.2135
vn 0.7247 -0.6551 -0.2135
vn 0.7545 -0.6094 -0.2437
vn 0.7545 -0.6094 -0.2437
vn 0.7545 -0.6094 -0.2437
vn 0.9347 -0.2627 -0.2395
vn 0.9347 -0.2627 -0.2395
vn 0.9347 -0.2627 -0.2395
vn 0.9385 -0.2356 -0.2524
vn 0.9385 -0.2356 -0.2524
vn 0.9385 -0.2356 -0.2524
vn -0.9698 -0.2435 0.0160
vn -0.9698 -0.2435 0.0160
vn -0.9698 -0.2435 0.0160
vn -0.9711 -0.2380 0.0183
vn -0.9711 -0.2380 0.0183
vn -0.9711 -0.2380 0.0183
vn -0.7775 -0.6279 0.0347
vn -0.7775 -0.6279 0.0347
vn -0.7775 -0.6279 0.0347
vn -0.7847 -0.6186 0.0406
vn -0.7847 -0.6186 0.0406
vn -0.7847 -0.6186 0.0406
vn -0.5331 -0.8451 0.0398
vn -0.5331 -0.8451 0.0398
vn -0.5331 -0.8451 0.0398
vn -0.5422 -0.8390 0.0464
vn -0.5422 -0.8390 0.0464
vn -0.5422 -0.8390 0.0464
vn -0.3058 -0.9513 0.0398
vn -0.3058 -0.9513 0.0398
vn -0.3058 -0.9513 0.0398
vn -0.3125 -0.9489 0.0447
vn -0.3125 -0.9489 0.0447
vn -0.3125 -0.9489 0.0447
vn -0.0993 -0.9943 0.0398
vn -0.0993 -0.9943 0.0398
vn -0.0993 -0.9943 0.0398
vn -0.1017 -0.9939 0.0416
vn -0.1017 -0.9939 0.0416
vn -0.1017 -0.9939 0.0416
vn 0.0993 -0.9942 0.0416
vn 0.0993 -0.9942 0.0416
vn 0.0993 -0.9942 0.0416
vn 0.1018 -0.9940 0.0398
vn 0.1018 -0.9940 0.0398
vn 0.1018 -0.9940 0.0398
vn 0.3057 -0.9511 0.0448
vn 0.3057 -0.9511 0.0448
vn 0.3057 -0.9511 0.0448
vn 0.3125 -0.9491 0.0397
vn 0.3125 -0.9491 0.0397
vn 0.3125 -0.9491 0.0397
vn 0.5330 -0.8448 0.0467
vn 0.5330 -0.8448 0.0467
vn 0.5330 -0.8448 0.0467
vn 0.5424 -0.8392 0.0395
vn 0.5424 -0.8392 0.0395
vn 0.5424 -0.8392 0.0395
vn 0.7773 -0.6278 0.0412
vn 0.7773 -0.6278 0.0412
vn 0.7773 -0.6278 0.0412
vn 0.7848 -0.6187 0.0342
vn 0.7848 -0.6187 0.0342
vn 0.7848 -0.6187 0.0342
vn 0.9697 -0.2435 0.0187
vn 0.9697 -0.2435 0.0187
vn 0.9697 -0.2435 0.0187
vn 0.9711 -0.2380 0.0156
vn 0.9711 -0.2380 0.0156
vn 0.9711 -0.2380 0.0156
vn -0.9325 -0.2285 0.2798
vn -0.9325 -0.2285 0.2798
vn -0.9325 -0.2285 0.2798
vn -0.9309 -0.2397 0.2757
vn -0.9309 -0.2397 0.2757
vn -0.9309 -0.2397 0.2757
vn -0.7483 -0.5899 0.3034
vn -0.7483 -0.5899 0.3034
vn -0.7483 -0.5899 0.3034
vn -0.7363 -0.6100 0.2927
vn -0.7363 -0.6100 0.2927
vn -0.7363 -0.6100 0.2927
vn -0.5156 -0.7978 0.3126
vn -0.5156 -0.7978 0.3126
vn -0.5156 -0.7978 0.3126
vn -0.4996 -0.8124 0.3008
vn -0.4996 -0.8124 0.3008
vn -0.4996 -0.8124 0.3008
vn -0.2968 -0.9012 0.3159
vn -0.2968 -0.9012 0.3159
vn -0.2968 -0.9012 0.3159
vn -0.2845 -0.9080 0.3074
vn -0.2845 -0.9080 0.3074
vn -0.2845 -0.9080 0.3074
vn -0.0966 -0.9439 0.3159
vn -0.0966 -0.9439 0.3159
vn -0.0966 -0.9439 0.3159
vn -0.0921 -0.9453 0.3129
vn -0.0921 -0.9453 0.3129
vn -0.0921 -0.9453 0.3129
vn 0.0967 -0.9448 0.3131
vn 0.0967 -0.9448 0.3131
vn 0.0967 -0.9448 0.3131
vn 0.0920 -0.9443 0.3161
vn 0.0920 -0.9443 0.3161
vn 0.0920 -0.9443 0.3161
vn 0.2976 -0.9036 0.3082
vn 0.2976 -0.9036 0.3082
vn 0.2976 -0.9036 0.3082
vn 0.2837 -0.9053 0.3161
vn 0.2837 -0.9053 0.3161
vn 0.2837 -0.9053 0.3161
vn 0.5175 -0.8006 0.3020
vn 0.5175 -0.8006 0.3020
vn 0.5175 -0.8006 0.3020
vn 0.4975 -0.8090 0.3130
vn 0.4975 -0.8090 0.3130
vn 0.4975 -0.8090 0.3130
vn 0.7507 -0.5919 0.2934
vn 0.7507 -0.5919 0.2934
vn 0.7507 -0.5919 0.2934
vn 0.7335 -0.6077 0.3043
vn 0.7335 -0.6077 0.3043
vn 0.7335 -0.6077 0.3043
vn 0.9337 -0.2288 0.2755
vn 0.9337 -0.2288 0.2755
vn 0.9337 -0.2288 0.2755
vn 0.9294 -0.2394 0.2808
vn 0.9294 -0.2394 0.2808
vn 0.9294 -0.2394 0.2808
vn -0.8729 -0.2248 0.4330
vn -0.8729 -0.2248 0.4330
vn -0.8729 -0.2248 0.4330
vn -0.8648 -0.2735 0.4210
vn -0.8648 -0.2735 0.4210
vn -0.8648 -0.2735 0.4210
vn -0.6818 -0.5649 0.4647
vn -0.6818 -0.5649 0.4647
vn -0.6818 -0.5649 0.4647
vn -0.6320 -0.6430 0.4325
vn -0.6320 -0.6430 0.4325
vn -0.6320 -0.6430 0.4325
vn -0.4588 -0.7460 0.4827
vn -0.4588 -0.7460 0.4827
vn -0.4588 -0.7460 0.4827
vn -0.3999 -0.7987 0.4496
vn -0.3999 -0.7987 0.4496
vn -0.3999 -0.7987 0.4496
vn -0.2602 -0.8303 0.4929
vn -0.2602 -0.8303 0.4929
vn -0.2602 -0.8303 0.4929
vn -0.2181 -0.8548 0.4710
vn -0.2181 -0.8548 0.4710
vn -0.2181 -0.8548 0.4710
vn -0.0842 -0.8647 0.4951
vn -0.0842 -0.8647 0.4951
vn -0.0842 -0.8647 0.4951
vn -0.0690 -0.8701 0.4879
vn -0.0690 -0.8701 0.4879
vn -0.0690 -0.8701 0.4879
vn 0.0846 -0.8682 0.4890
vn 0.0846 -0.8682 0.4890
vn 0.0846 -0.8682 0.4890
vn 0.0687 -0.8658 0.4957
vn 0.0687 -0.8658 0.4957
vn 0.0687 -0.8658 0.4957
vn 0.2630 -0.8394 0.4756
vn 0.2630 -0.8394 0.4756
vn 0.2630 -0.8394 0.4756
vn 0.2150 -0.8428 0.4934
vn 0.2150 -0.8428 0.4934
vn 0.2150 -0.8428 0.4934
vn 0.4657 -0.7572 0.4581
vn 0.4657 -0.7572 0.4581
vn 0.4657 -0.7572 0.4581
vn 0.3921 -0.7830 0.4828
vn 0.3921 -0.7830 0.4828
vn 0.3921 -0.7830 0.4828
vn 0.6912 -0.5727 0.4407
vn 0.6912 -0.5727 0.4407
vn 0.6912 -0.5727 0.4407
vn 0.6199 -0.6307 0.4669
vn 0.6199 -0.6307 0.4669
vn 0.6199 -0.6307 0.4669
vn 0.8779 -0.2261 0.4221
vn 0.8779 -0.2261 0.4221
vn 0.8779 -0.2261 0.4221
vn 0.8573 -0.2711 0.4377
vn 0.8573 -0.2711 0.4377
vn 0.8573 -0.2711 0.4377
vn -0.8380 -0.2651 0.4769
vn -0.8380 -0.2651 0.4769
vn -0.8380 -0.2651 0.4769
vn -0.7123 -0.5641 0.4176
vn -0.7123 -0.5641 0.4176
vn -0.7123 -0.5641 0.4176
vn -0.5975 -0.6080 0.5228
vn -0.5975 -0.6080 0.5228
vn -0.5975 -0.6080 0.5228
vn -0.3335 -0.8496 0.4086
vn -0.3335 -0.8496 0.4086
vn -0.3335 -0.8496 0.4086
vn -0.3731 -0.7450 0.5530
vn -0.3731 -0.7450 0.5530
vn -0.3731 -0.7450 0.5530
vn -0.1731 -0.8656 0.4698
vn -0.1731 -0.8656 0.4698
vn -0.1731 -0.8656 0.4698
vn -0.2028 -0.7948 0.5721
vn -0.2028 -0.7948 0.5721
vn -0.2028 -0.7948 0.5721
vn -0.0861 -0.8449 0.5279
vn -0.0861 -0.8449 0.5279
vn -0.0861 -0.8449 0.5279
vn -0.0645 -0.8138 0.5776
vn -0.0645 -0.8138 0.5776
vn -0.0645 -0.8138 0.5776
vn -0.0261 -0.8246 0.5651
vn -0.0261 -0.8246 0.5651
vn -0.0261 -0.8246 0.5651
vn 0.0651 -0.8203 0.5682
vn 0.0651 -0.8203 0.5682
vn 0.0651 -0.8203 0.5682
vn 0.0258 -0.8152 0.5786
vn 0.0258 -0.8152 0.5786
vn 0.0258 -0.8152 0.5786
vn 0.2074 -0.8127 0.5445
vn 0.2074 -0.8127 0.5445
vn 0.2074 -0.8127 0.5445
vn 0.0833 -0.8179 0.5693
vn 0.0833 -0.8179 0.5693
vn 0.0833 -0.8179 0.5693
vn 0.3849 -0.7687 0.5109
vn 0.3849 -0.7687 0.5109
vn 0.3849 -0.7687 0.5109
vn 0.1651 -0.8255 0.5397
vn 0.1651 -0.8255 0.5397
vn 0.1651 -0.8255 0.5397
vn 0.6159 -0.6266 0.4775
vn 0.6159 -0.6266 0.4775
vn 0.6159 -0.6266 0.4775
vn 0.3164 -0.8060 0.5003
vn 0.3164 -0.8060 0.5003
vn 0.3164 -0.8060 0.5003
vn 0.8494 -0.2686 0.4543
vn 0.8494 -0.2686 0.4543
vn 0.8494 -0.2686 0.4543
vn 0.6852 -0.5426 0.4858
vn 0.6852 -0.5426 0.4858
vn 0.6852 -0.5426 0.4858
vn 0.0000 0.0000 1.0000
vn 0.0000 0.0000 1.0000
vn 0.0000 0.0000 1.0000
vn 0.0000 0.0000 1.0000
vn 0.0000 0.0000 1.0000
vn 0.0000 0.0000 1.0000
vn 0.0000 0.0000 -1.0000
vn 0.0000 0.0000 -1.0000
vn 0.0000 0.0000 -1.0000
vn 0.0000 0.0000 1.0000
vn 0.0000 0.0000 1.0000
vn 0.0000 0.0000 1.0000
vn 0.0000 0.0000 -1.0000
vn 0.0000 0.0000 -1.0000
vn 0.0000 0.0000 -1.0000
vn 0.0000 0.0000 -1.0000
vn 0.0000 0.0000 -1.0000
vn 0.0000 0.0000 -1.0000
vn 0.0000 0.0000 -1.0000
vn 0.0000 0.0000 -1.0000
vn 0.0000 0.0000 -1.0000
vn 0.0000 0.0000 -1.0000
vn 0.0000 0.0000 -1.0000
vn 0.0000 0.0000 -1.0000
vn 0.0000 0.0000 -1.0000
vn 0.0000 0.0000 -1.0000
vn 0.0000 0.0000 -1.0000
vn 0.0000 0.0000 -1.0000
vn 0.0000 0.0000 -1.0000
vn 0.0000 0.0000 -1.0000
vn -0.0000 0.0000 -1.0000
vn -0.0000 0.0000 -1.0000
vn -0.0000 0.0000 -1.0000
vn 0.0000 0.0000 -1.0000
vn 0.0000 0.0000 -1.0000
vn 0.0000 0.0000 -1.0000
vn 0.0000 0.0000 -1.0000
vn 0.0000 0.0000 -1.0000
vn 0.0000 0.0000 -1.0000
vn -0.0000 0.0000 -1.0000
vn -0.0000 0.0000 -1.0000
vn -0.0000 0.0000 -1.0000
vn 0.0000 0.0000 -1.0000
vn 0.0000 0.0000 -1.0000
vn 0.0000 0.0000 -1.0000
vn -0.0000 0.0000 -1.0000
vn -0.0000 0.0000 -1.0000
vn -0.0000 0.0000 -1.0000
vn 0.0000 0.0000 1.0000
vn 0.0000 0.0000 1.0000
vn 0.0000 0.0000 1.0000
vn -0.0000 0.0000 -1.0000
vn -0.0000 0.0000 -1.0000
vn -0.0000 0.0000 -1.0000
vn 0.0000 0.0000 1.0000
vn 0.0000 0.0000 1.0000
vn 0.0000 0.0000 1.0000
vn -0.0000 0.0000 1.0000
vn -0.0000 0.0000 1.0000
vn -0.0000 0.0000 1.0000
vn -0.0185 0.8909 -0.4538
vn -0.0185 0.8909 -0.4538
vn -0.0185 0.8909 -0.4538
vn 0.8108 -0.0469 -0.5835
vn 0.8108 -0.0469 -0.5835
vn 0.8108 -0.0469 -0.5835
vn -0.2471 -0.7907 -0.5601
vn -0.2471 -0.7907 -0.5601
vn -0.2471 -0.7907 -0.5601
vn -0.8577 0.1819 -0.4808
vn -0.8577 0.1819 -0.4808
vn -0.8577 0.1819 -0.4808
vn -0.1075 -0.9927 -0.0548
vn -0.1075 -0.9927 -0.0548
vn -0.1075 -0.9927 -0.0548
vn -0.1367 -0.9879 -0.0731
vn -0.1367 -0.9879 -0.0731
vn -0.1367 -0.9879 -0.0731
vn -0.9702 0.1658 -0.1769
vn -0.9702 0.1658 -0.1769
vn -0.9702 0.1658 -0.1769
vn -0.9476 0.2391 -0.2121
vn -0.9476 0.2391 -0.2121
vn -0.9476 0.2391 -0.2121
vn 0.0905 0.9953 -0.0333
vn 0.0905 0.9953 -0.0333
vn 0.0905 0.9953 -0.0333
vn 0.0896 0.9954 -0.0330
vn 0.0896 0.9954 -0.0330
vn 0.0896 0.9954 -0.0330
vn -0.0185 -0.8909 0.4538
vn -0.0185 -0.8909 0.4538
vn -0.0185 -0.8909 0.4538
vn 0.8108 0.0469 0.5835
vn 0.8108 0.0469 0.5835
vn 0.8108 0.0469 0.5835
vn -0.2471 0.7907 0.5601
vn -0.2471 0.7907 0.5601
vn -0.2471 0.7907 0.5601
vn -0.8577 -0.1819 0.4808
vn -0.8577 -0.1819 0.4808
vn -0.8577 -0.1819 0.4808
vn 0.1367 -0.9879 -0.0731
vn 0.1367 -0.9879 -0.0731
vn 0.1367 -0.9879 -0.0731
vn 0.1075 -0.9927 -0.0548
vn 0.1075 -0.9927 -0.0548
vn 0.1075 -0.9927 -0.0548
vn 0.9476 0.2391 -0.2121
vn 0.9476 0.2391 -0.2121
vn 0.9476 0.2391 -0.2121
vn 0.9702 0.1658 -0.1769
vn 0.9702 0.1658 -0.1769
vn 0.9702 0.1658 -0.1769
vn -0.0896 0.9954 -0.0330
vn -0.0896 0.9954 -0.0330
vn -0.0896 0.9954 -0.0330
vn -0.0905 0.9953 -0.0333
vn -0.0905 0.9953 -0.0333
vn -0.0905 0.9953 -0.0333
vn 0.0045 0.9994 -0.0348
vn 0.0045 0.9994 -0.0348
vn 0.0045 0.9994 -0.0348
vn 0.0046 0.9994 -0.0347
vn 0.0046 0.9994 -0.0347
vn 0.0046 0.9994 -0.0347
vn 0.0305 -0.9994 -0.0143
vn 0.0305 -0.9994 -0.0143
vn 0.0305 -0.9994 -0.0143
vn 0.0079 -0.9993 -0.0359
vn 0.0079 -0.9993 -0.0359
vn 0.0079 -0.9993 -0.0359
vn 0.5346 0.0000 0.8451
vn 0.5346 0.0000 0.8451
vn 0.5346 0.0000 0.8451
vn 0.5346 0.0000 0.8451
vn 0.5346 0.0000 0.8451
vn 0.5346 0.0000 0.8451
vn 0.0680 0.0000 -0.9977
vn 0.0680 0.0000 -0.9977
vn 0.0680 0.0000 -0.9977
vn 0.0680 0.0000 -0.9977
vn 0.0680 0.0000 -0.9977
vn 0.0680 0.0000 -0.9977
vn 0.9487 0.0000 -0.3162
vn 0.9487 0.0000 -0.3162
vn 0.9487 0.0000 -0.3162
vn 0.9487 0.0000 -0.3162
vn 0.9487 0.0000 -0.3162
vn 0.9487 0.0000 -0.3162
vn -0.0046 0.9994 -0.0347
vn -0.0046 0.9994 -0.0347
vn -0.0046 0.9994 -0.0347
vn -0.0045 0.9994 -0.0348
vn -0.0045 0.9994 -0.0348
vn -0.0045 0.9994 -0.0348
vn -0.0079 -0.9993 -0.0359
vn -0.0079 -0.9993 -0.0359
vn -0.0079 -0.9993 -0.0359
vn -0.0305 -0.9994 -0.0143
vn -0.0305 -0.9994 -0.0143
vn -0.0305 -0.9994 -0.0143
vn -0.5346 0.0000 0.8451
vn -0.5346 0.0000 0.8451
vn -0.5346 0.0000 0.8451
vn -0.5346 0.0000 0.8451
vn -0.5346 0.0000 0.8451
vn -0.5346 0.0000 0.8451
vn -0.0680 0.0000 -0.9977
vn -0.0680 0.0000 -0.9977
vn -0.0680 0.0000 -0.9977
vn -0.0680 -0.0000 -0.9977
vn -0.0680 -0.0000 -0.9977
vn -0.0680 -0.0000 -0.9977
vn -0.9487 0.0000 -0.3162
vn -0.9487 0.0000 -0.3162
vn -0.9487 0.0000 -0.3162
vn -0.9487 -0.0000 -0.3162
vn -0.9487 -0.0000 -0.3162
vn -0.9487 -0.0000 -0.3162
vn -0.9526 0.3039 -0.0122
vn -0.9526 0.3039 -0.0122
vn -0.9526 0.3039 -0.0122
vn -0.9511 0.3089 -0.0077
vn -0.9511 0.3089 -0.0077
vn -0.9511 0.3089 -0.0077
vn 0.9345 -0.3559 0.0089
vn 0.9345 -0.3559 0.0089
vn 0.9345 -0.3559 0.0089
vn 0.9366 -0.3501 0.0140
vn 0.9366 -0.3501 0.0140
vn 0.9366 -0.3501 0.0140
vn -0.1590 -0.4490 -0.8793
vn -0.1590 -0.4490 -0.8793
vn -0.1590 -0.4490 -0.8793
vn -0.1590 -0.4490 -0.8793
vn -0.1590 -0.4490 -0.8793
vn -0.1590 -0.4490 -0.8793
vn 0.0549 0.1550 0.9864
vn 0.0549 0.1550 0.9864
vn 0.0549 0.1550 0.9864
vn 0.0549 0.1550 0.9864
vn 0.0549 0.1550 0.9864
vn 0.0549 0.1550 0.9864
vn -0.3336 -0.9420 0.0377
vn -0.3336 -0.9420 0.0377
vn -0.3336 -0.9420 0.0377
vn -0.3336 -0.9420 0.0377
vn -0.3336 -0.9420 0.0377
vn -0.3336 -0.9420 0.0377
vn 0.9345 0.3559 -0.0089
vn 0.9345 0.3559 -0.0089
vn 0.9345 0.3559 -0.0089
vn 0.9366 0.3501 -0.0140
vn 0.9366 0.3501 -0.0140
vn 0.9366 0.3501 -0.0140
vn -0.9526 -0.3039 0.0122
vn -0.9526 -0.3039 0.0122
vn -0.9526 -0.3039 0.0122
vn -0.9511 -0.3089 0.0077
vn -0.9511 -0.3089 0.0077
vn -0.9511 -0.3089 0.0077
vn -0.1590 0.4490 0.8793
vn -0.1590 0.4490 0.8793
vn -0.1590 0.4490 0.8793
vn -0.1590 0.4490 0.8793
vn -0.1590 0.4490 0.8793
vn -0.1590 0.4490 0.8793
vn 0.0549 -0.1550 -0.9864
vn 0.0549 -0.1550 -0.9864
vn 0.0549 -0.1550 -0.9864
vn 0.0549 -0.1550 -0.9864
vn 0.0549 -0.1550 -0.9864
vn 0.0549 -0.1550 -0.9864
vn -0.3336 0.9420 -0.0377
vn -0.3336 0.9420 -0.0377
vn -0.3336 0.9420 -0.0377
vn -0.3336 0.9420 -0.0377
vn -0.3336 0.9420 -0.0377
vn -0.3336 0.9420 -0.0377
vn 0.0045 0.9998 -0.0171
vn 0.0045 0.9998 -0.0171
vn 0.0045 0.9998 -0.0171
vn -0.0034 0.9997 -0.0236
vn -0.0034 0.9997 -0.0236
vn -0.0034 0.9997 -0.0236
vn -0.0034 -0.9997 -0.0236
vn -0.0034 -0.9997 -0.0236
vn -0.0034 -0.9997 -0.0236
vn 0.0045 -0.9998 -0.0171
vn 0.0045 -0.9998 -0.0171
vn 0.0045 -0.9998 -0.0171
vn 0.4027 0.0000 0.9153
vn 0.4027 0.0000 0.9153
vn 0.4027 0.0000 0.9153
vn 0.4027 0.0000 0.9153
vn 0.4027 0.0000 0.9153
vn 0.4027 0.0000 0.9153
vn -0.1414 -0.0000 -0.9899
vn -0.1414 -0.0000 -0.9899
vn -0.1414 -0.0000 -0.9899
vn -0.1414 0.0000 -0.9899
vn -0.1414 0.0000 -0.9899
vn -0.1414 0.0000 -0.9899
vn 0.9333 0.0000 -0.3590
vn 0.9333 0.0000 -0.3590
vn 0.9333 0.0000 -0.3590
vn 0.0034 0.9997 -0.0236
vn 0.0034 0.9997 -0.0236
vn 0.0034 0.9997 -0.0236
vn -0.0045 0.9998 -0.0171
vn -0.0045 0.9998 -0.0171
vn -0.0045 0.9998 -0.0171
vn -0.0045 -0.9998 -0.0171
vn -0.0045 -0.9998 -0.0171
vn -0.0045 -0.9998 -0.0171
vn 0.0034 -0.9997 -0.0236
vn 0.0034 -0.9997 -0.0236
vn 0.0034 -0.9997 -0.0236
vn -0.4027 0.0000 0.9153
vn -0.4027 0.0000 0.9153
vn -0.4027 0.0000 0.9153
vn -0.4027 0.0000 0.9153
vn -0.4027 0.0000 0.9153
vn -0.4027 0.0000 0.9153
vn 0.1414 0.0000 -0.9899
vn 0.1414 0.0000 -0.9899
vn 0.1414 0.0000 -0.9899
vn 0.1414 0.0000 -0.9899
vn 0.1414 0.0000 -0.9899
vn 0.1414 0.0000 -0.9899
vn -0.9333 0.0000 -0.3590
vn -0.9333 0.0000 -0.3590
vn -0.9333 0.0000 -0.3590
vn -0.9333 -0.0000 -0.3590
vn -0.9333 -0.0000 -0.3590
vn -0.9333 -0.0000 -0.3590
vn 0.9746 0.1718 -0.1436
vn 0.9746 0.1718 -0.1436
vn 0.9746 0.1718 -0.1436
vn 0.9746 0.1718 -0.1436
vn 0.9746 0.1718 -0.1436
vn 0.9746 0.1718 -0.1436
vn -0.8268 -0.1458 -0.5433
vn -0.8268 -0.1458 -0.5433
vn -0.8268 -0.1458 -0.5433
vn -0.8268 -0.1458 -0.5433
vn -0.8268 -0.1458 -0.5433
vn -0.8268 -0.1458 -0.5433
vn 0.8570 0.4948 -0.1436
vn 0.8570 0.4948 -0.1436
vn 0.8570 0.4948 -0.1436
vn 0.8570 0.4948 -0.1436
vn 0.8570 0.4948 -0.1436
vn 0.8570 0.4948 -0.1436
vn -0.7271 -0.4198 -0.5433
vn -0.7271 -0.4198 -0.5433
vn -0.7271 -0.4198 -0.5433
vn -0.7271 -0.4198 -0.5433
vn -0.7271 -0.4198 -0.5433
vn -0.7271 -0.4198 -0.5433
vn 0.6361 0.7581 -0.1436
vn 0.6361 0.7581 -0.1436
vn 0.6361 0.7581 -0.1436
vn 0.6361 0.7581 -0.1436
vn 0.6361 0.7581 -0.1436
vn 0.6361 0.7581 -0.1436
vn -0.5396 -0.6431 -0.5433
vn -0.5396 -0.6431 -0.5433
vn -0.5396 -0.6431 -0.5433
vn -0.5396 -0.6431 -0.5433
vn -0.5396 -0.6431 -0.5433
vn -0.5396 -0.6431 -0.5433
vn 0.3385 0.9300 -0.1436
vn 0.3385 0.9300 -0.1436
vn 0.3385 0.9300 -0.1436
vn 0.3385 0.9300 -0.1436
vn 0.3385 0.9300 -0.1436
vn 0.3385 0.9300 -0.1436
vn -0.2871 -0.7889 -0.5433
vn -0.2871 -0.7889 -0.5433
vn -0.2871 -0.7889 -0.5433
vn -0.2871 -0.7889 -0.5433
vn -0.2871 -0.7889 -0.5433
vn -0.2871 -0.7889 -0.5433
vn 0.0000 0.9896 -0.1436
vn 0.0000 0.9896 -0.1436
vn 0.0000 0.9896 -0.1436
vn 0.0000 0.9896 -0.1436
vn 0.0000 0.9896 -0.1436
vn 0.0000 0.9896 -0.1436
vn 0.0000 -0.8395 -0.5433
vn 0.0000 -0.8395 -0.5433
vn 0.0000 -0.8395 -0.5433
vn -0.0000 -0.8395 -0.5433
vn -0.0000 -0.8395 -0.5433
vn -0.0000 -0.8395 -0.5433
vn -0.3385 0.9300 -0.1436
vn -0.3385 0.9300 -0.1436
vn -0.3385 0.9300 -0.1436
vn -0.3385 0.9300 -0.1436
vn -0.3385 0.9300 -0.1436
vn -0.3385 0.9300 -0.1436
vn 0.2871 -0.7889 -0.5433
vn 0.2871 -0.7889 -0.5433
vn 0.2871 -0.7889 -0.5433
vn 0.2871 -0.7889 -0.5433
vn 0.2871 -0.7889 -0.5433
vn 0.2871 -0.7889 -0.5433
vn -0.6361 0.7581 -0.1436
vn -0.6361 0.7581 -0.1436
vn -0.6361 0.7581 -0.1436
vn -0.6361 0.7581 -0.1436
vn -0.6361 0.7581 -0.1436
vn -0.6361 0.7581 -0.1436
vn 0.5396 -0.6431 -0.5433
vn 0.5396 -0.6431 -0.5433
vn 0.5396 -0.6431 -0.5433
vn 0.5396 -0.6431 -0.5433
vn 0.5396 -0.6431 -0.5433
vn 0.5396 -0.6431 -0.5433
vn -0.8570 0.4948 -0.1436
vn -0.8570 0.4948 -0.1436
vn -0.8570 0.4948 -0.1436
vn -0.8570 0.4948 -0.1436
vn -0.8570 0.4948 -0.1436
vn -0.8570 0.4948 -0.1436
vn 0.7271 -0.4198 -0.5433
vn 0.7271 -0.4198 -0.5433
vn 0.7271 -0.4198 -0.5433
vn 0.7271 -0.4198 -0.5433
vn 0.7271 -0.4198 -0.5433
vn 0.7271 -0.4198 -0.5433
vn -0.9746 0.1718 -0.1436
vn -0.9746 0.1718 -0.1436
vn -0.9746 0.1718 -0.1436
vn -0.9746 0.1718 -0.1436
vn -0.9746 0.1718 -0.1436
vn -0.9746 0.1718 -0.1436
vn 0.8268 -0.1458 -0.5433
vn 0.8268 -0.1458 -0.5433
vn 0.8268 -0.1458 -0.5433
vn 0.8268 -0.1458 -0.5433
vn 0.8268 -0.1458 -0.5433
vn 0.8268 -0.1458 -0.5433
vn -0.9746 -0.1718 -0.1436
vn -0.9746 -0.1718 -0.1436
vn -0.9746 -0.1718 -0.1436
vn -0.9746 -0.1718 -0.1436
vn -0.9746 -0.1718 -0.1436
vn -0.9746 -0.1718 -0.1436
vn 0.8268 0.1458 -0.5433
vn 0.8268 0.1458 -0.5433
vn 0.8268 0.1458 -0.5433
vn 0.8268 0.1458 -0.5433
vn 0.8268 0.1458 -0.5433
vn 0.8268 0.1458 -0.5433
vn -0.8570 -0.4948 -0.1436
vn -0.8570 -0.4948 -0.1436
vn -0.8570 -0.4948 -0.1436
vn -0.8570 -0.4948 -0.1436
vn -0.8570 -0.4948 -0.1436
vn -0.8570 -0.4948 -0.1436
vn 0.7271 0.4198 -0.5433
vn 0.7271 0.4198 -0.5433
vn 0.7271 0.4198 -0.5433
vn 0.7271 0.4198 -0.5433
vn 0.7271 0.4198 -0.5433
vn 0.7271 0.4198 -0.5433
vn -0.6361 -0.7581 -0.1436
vn -0.6361 -0.7581 -0.1436
vn -0.6361 -0.7581 -0.1436
vn -0.6361 -0.7581 -0.1436
vn -0.6361 -0.7581 -0.1436
vn -0.6361 -0.7581 -0.1436
vn 0.5396 0.6431 -0.5433
vn 0.5396 0.6431 -0.5433
vn 0.5396 0.6431 -0.5433
vn 0.5396 0.6431 -0.5433
vn 0.5396 0.6431 -0.5433
vn 0.5396 0.6431 -0.5433
vn -0.3385 -0.9300 -0.1436
vn -0.3385 -0.9300 -0.1436
vn -0.3385 -0.9300 -0.1436
vn -0.3385 -0.9300 -0.1436
vn -0.3385 -0.9300 -0.1436
vn -0.3385 -0.9300 -0.1436
vn 0.2871 0.7889 -0.5433
vn 0.2871 0.7889 -0.5433
vn 0.2871 0.7889 -0.5433
vn 0.2871 0.7889 -0.5433
vn 0.2871 0.7889 -0.5433
vn 0.2871 0.7889 -0.5433
vn -0.0000 -0.9896 -0.1436
vn -0.0000 -0.9896 -0.1436
vn -0.0000 -0.9896 -0.1436
vn 0.0000 -0.9896 -0.1436
vn 0.0000 -0.9896 -0.1436
vn 0.0000 -0.9896 -0.1436
vn 0.0000 0.8395 -0.5433
vn 0.0000 0.8395 -0.5433
vn 0.0000 0.8395 -0.5433
vn 0.0000 0.8395 -0.5433
vn 0.0000 0.8395 -0.5433
vn 0.0000 0.8395 -0.5433
vn 0.3385 -0.9300 -0.1436
vn 0.3385 -0.9300 -0.1436
vn 0.3385 -0.9300 -0.1436
vn 0.3385 -0.9300 -0.1436
vn 0.3385 -0.9300 -0.1436
vn 0.3385 -0.9300 -0.1436
vn -0.2871 0.7889 -0.5433
vn -0.2871 0.7889 -0.5433
vn -0.2871 0.7889 -0.5433
vn -0.2871 0.7889 -0.5433
vn -0.2871 0.7889 -0.5433
vn -0.2871 0.7889 -0.5433
vn 0.6361 -0.7581 -0.1436
vn 0.6361 -0.7581 -0.1436
vn 0.6361 -0.7581 -0.1436
vn 0.6361 -0.7581 -0.1436
vn 0.6361 -0.7581 -0.1436
vn 0.6361 -0.7581 -0.1436
vn -0.5396 0.6431 -0.5433
vn -0.5396 0.6431 -0.5433
vn -0.5396 0.6431 -0.5433
vn -0.5396 0.6431 -0.5433
vn -0.5396 0.6431 -0.5433
vn -0.5396 0.6431 -0.5433
vn 0.8570 -0.4948 -0.1436
vn 0.8570 -0.4948 -0.1436
vn 0.8570 -0.4948 -0.1436
vn 0.8570 -0.4948 -0.1436
vn 0.8570 -0.4948 -0.1436
vn 0.8570 -0.4948 -0.1436
vn -0.7271 0.4198 -0.5433
vn -0.7271 0.4198 -0.5433
vn -0.7271 0.4198 -0.5433
vn -0.7271 0.4198 -0.5433
vn -0.7271 0.4198 -0.5433
vn -0.7271 0.4198 -0.5433
vn 0.9746 -0.1718 -0.1436
vn 0.9746 -0.1718 -0.1436
vn 0.9746 -0.1718 -0.1436
vn 0.9746 -0.1718 -0.1436
vn 0.9746 -0.1718 -0.1436
vn 0.9746 -0.1718 -0.1436
vn -0.8268 0.1458 -0.5433
vn -0.8268 0.1458 -0.5433
vn -0.8268 0.1458 -0.5433
vn -0.8268 0.1458 -0.5433
vn -0.8268 0.1458 -0.5433
vn -0.8268 0.1458 -0.5433
vn 0.7017 0.1237 0.7017
vn 0.7017 0.1237 0.7017
vn 0.7017 0.1237 0.7017
vn 0.6170 0.3562 0.7017
vn 0.6170 0.3562 0.7017
vn 0.6170 0.3562 0.7017
vn 0.4580 0.5458 0.7017
vn 0.4580 0.5458 0.7017
vn 0.4580 0.5458 0.7017
vn 0.2437 0.6695 0.7017
vn 0.2437 0.6695 0.7017
vn 0.2437 0.6695 0.7017
vn 0.0000 0.7125 0.7017
vn 0.0000 0.7125 0.7017
vn 0.0000 0.7125 0.7017
vn -0.2437 0.6695 0.7017
vn -0.2437 0.6695 0.7017
vn -0.2437 0.6695 0.7017
vn -0.4580 0.5458 0.7017
vn -0.4580 0.5458 0.7017
vn -0.4580 0.5458 0.7017
vn -0.6170 0.3562 0.7017
vn -0.6170 0.3562 0.7017
vn -0.6170 0.3562 0.7017
vn -0.7017 0.1237 0.7017
vn -0.7017 0.1237 0.7017
vn -0.7017 0.1237 0.7017
vn -0.7017 -0.1237 0.7017
vn -0.7017 -0.1237 0.7017
vn -0.7017 -0.1237 0.7017
vn -0.6170 -0.3562 0.7017
vn -0.6170 -0.3562 0.7017
vn -0.6170 -0.3562 0.7017
vn -0.4580 -0.5458 0.7017
vn -0.4580 -0.5458 0.7017
vn -0.4580 -0.5458 0.7017
vn -0.2437 -0.6695 0.7017
vn -0.2437 -0.6695 0.7017
vn -0.2437 -0.6695 0.7017
vn -0.0000 -0.7125 0.7017
vn -0.0000 -0.7125 0.7017
vn -0.0000 -0.7125 0.7017
vn 0.2437 -0.6695 0.7017
vn 0.2437 -0.6695 0.7017
vn 0.2437 -0.6695 0.7017
vn 0.4580 -0.5458 0.7017
vn 0.4580 -0.5458 0.7017
vn 0.4580 -0.5458 0.7017
vn 0.6170 -0.3562 0.7017
vn 0.6170 -0.3562 0.7017
vn 0.6170 -0.3562 0.7017
vn 0.7017 -0.1237 0.7017
vn 0.7017 -0.1237 0.7017
vn 0.7017 -0.1237 0.7017
vn 0.0000 0.0000 1.0000
vn 0.0000 0.0000 1.0000
vn 0.0000 0.0000 1.0000
vn 0.0000 0.0000 1.0000
vn 0.0000 0.0000 1.0000
vn 0.0000 0.0000 1.0000
vn -0.0000 0.0000 -1.0000
vn -0.0000 0.0000 -1.0000
vn -0.0000 0.0000 -1.0000
vn 0.0000 0.0000 -1.0000
vn 0.0000 0.0000 -1.0000
vn 0.0000 0.0000 -1.0000
vn 0.0000 0.0000 1.0000
vn 0.0000 0.0000 1.0000
vn 0.0000 0.0000 1.0000
vn 0.0000 0.0000 1.0000
vn 0.0000 0.0000 1.0000
vn 0.0000 0.0000 1.0000
vn 0.0000 0.0000 1.0000
vn 0.0000 0.0000 1.0000
vn 0.0000 0.0000 1.0000
vn 0.0000 0.0000 1.0000
vn 0.0000 0.0000 1.0000
vn 0.0000 0.0000 1.0000
vn 0.0000 0.0000 1.0000
vn 0.0000 0.0000 1.0000
vn 0.0000 0.0000 1.0000
vn 0.0000 0.0000 1.0000
vn 0.0000 0.0000 1.0000
vn 0.0000 0.0000 1.0000
vn 0.0000 0.0000 1.0000
vn 0.0000 0.0000 1.0000
vn 0.0000 0.0000 1.0000
vn 0.0000 0.0000 1.0000
vn 0.0000 0.0000 1.0000
vn 0.0000 0.0000 1.0000
vn 0.0000 0.0000 1.0000
vn 0.0000 0.0000 1.0000
vn 0.0000 0.0000 1.0000
vn 0.0000 0.0000 1.0000
vn 0.0000 0.0000 1.0000
vn 0.0000 0.0000 1.0000
vn 0.0000 0.0000 -1.0000
vn 0.0000 0.0000 -1.0000
vn 0.0000 0.0000 -1.0000
vn 0.0000 0.0000 -1.0000
vn 0.0000 0.0000 -1.0000
vn 0.0000 0.0000 -1.0000
vn -0.0000 -0.0000 1.0000
vn -0.0000 -0.0000 1.0000
vn -0.0000 -0.0000 1.0000
vn 0.0000 0.0000 1.0000
vn 0.0000 0.0000 1.0000
vn 0.0000 0.0000 1.0000
vn 0.0000 0.0000 1.0000
vn 0.0000 0.0000 1.0000
vn 0.0000 0.0000 1.0000
vn -0.0000 0.0000 1.0000
vn -0.0000 0.0000 1.0000
vn -0.0000 0.0000 1.0000
vn 0.0000 0.0000 1.0000
vn 0.0000 0.0000 1.0000
vn 0.0000 0.0000 1.0000
vn 0.0000 0.0000 1.0000
vn 0.0000 0.0000 1.0000
vn 0.0000 0.0000 1.0000
vn -0.0000 0.0000 1.0000
vn -0.0000 0.0000 1.0000
vn -0.0000 0.0000 1.0000
vn 0.0000 0.0000 1.0000
vn 0.0000 0.0000 1.0000
vn 0.0000 0.0000 1.0000
vn -0.0816 0.9964 0.0223
vn -0.0816 0.9964 0.0223
vn -0.0816 0.9964 0.0223
vn -0.1036 0.9945 0.0167
vn -0.1036 0.9945 0.0167
vn -0.1036 0.9945 0.0167
vn -0.0816 -0.9964 -0.0223
vn -0.0816 -0.9964 -0.0223
vn -0.0816 -0.9964 -0.0223
vn -0.1036 -0.9945 -0.0167
vn -0.1036 -0.9945 -0.0167
vn -0.1036 -0.9945 -0.0167

usemtl fuselage
f 1//1 2//2 3//3
f 4//4 5//5 6//6
f 7//7 8//8 9//9
f 10//10 11//11 12//12
f 13//13 14//14 15//15
f 16//16 17//17 18//18
f 19//19 20//20 21//21
f 22//22 23//23 24//24
f 25//25 26//26 27//27
f 28//28 29//29 30//30
f 31//31 32//32 33//33
f 34//34 35//35 36//36
f 37//37 38//38 39//39
f 40//40 41//41 42//42
f 43//43 44//44 45//45
f 46//46 47//47 48//48
f 49//49 50//50 51//51
f 52//52 53//53 54//54
f 55//55 56//56 57//57
f 58//58 59//59 60//60
f 61//61 62//62 63//63
f 64//64 65//65 66//66
f 67//67 68//68 69//69
f 70//70 71//71 72//72
f 73//73 74//74 75//75
f 76//76 77//77 78//78
f 79//79 80//80 81//81
f 82//82 83//83 84//84
f 85//85 86//86 87//87
f 88//88 89//89 90//90
f 91//91 92//92 93//93
f 94//94 95//95 96//96
f 97//97 98//98 99//99
f 100//100 101//101 102//102
f 103//103 104//104 105//105
f 106//106 107//107 108//108
f 109//109 110//110 111//111
f 112//112 113//113 114//114
f 115//115 116//116 117//117
f 118//118 119//119 120//120
f 121//121 122//122 123//123
f 124//124 125//125 126//126
f 127//127 128//128 129//129
f 130//130 131//131 132//132
f 133//133 134//134 135//135
f 136//136 137//137 138//138
f 139//139 140//140 141//141
f 142//142 143//143 144//144
f 145//145 146//146 147//147
f 148//148 149//149 150//150
f 151//151 152//152 153//153
f 154//154 155//155 156//156
f 157//157 158//158 159//159
f 160//160 161//161 162//162
f 163//163 164//164 165//165
f 166//166 167//167 168//168
f 169//169 170//170 171//171
f 172//172 173//173 174//174
f 175//175 176//176 177//177
f 178//178 179//179 180//180
f 181//181 182//182 183//183
f 184//184 185//185 186//186
f 187//187 188//188 189//189
f 190//190 191//191 192//192
f 193//193 194//194 195//195
f 196//196 197//197 198//198
f 199//199 200//200 201//201
f 202//202 203//203 204//204
f 205//205 206//206 207//207
f 208//208 209//209 210//210
f 211//211 212//212 213//213
f 214//214 215//215 216//216
f 217//217 218//218 219//219
f 220//220 221//221 222//222
f 223//223 224//224 225//225
f 226//226 227//227 228//228
f 229//229 230//230 231//231
f 232//232 233//233 234//234
f 235//235 236//236 237//237
f 238//238 239//239 240//240
f 241//241 242//242 243//243
f 244//244 245//245 246//246
f 247//247 248//248 249//249
f 250//250 251//251 252//252
f 253//253 254//254 255//255
f 256//256 257//257 258//258
f 259//259 260//260 261//261
f 262//262 263//263 264//264
f 265//265 266//266 267//267
f 268//268 269//269 270//270
f 271//271 272//272 273//273
f 274//274 275//275 276//276
f 277//277 278//278 279//279
f 280//280 281//281 282//282
f 283//283 284//284 285//285
f 286//286 287//287 288//288
f 289//289 290//290 291//291
f 292//292 293//293 294//294
f 295//295 296//296 297//297
f 298//298 299//299 300//300
f 301//301 302//302 303//303
f 304//304 305//305 306//306
f 307//307 308//308 309//309
f 310//310 311//311 312//312
f 313//313 314//314 315//315
f 316//316 317//317 318//318
f 319//319 320//320 321//321
f 322//322 323//323 324//324
f 325//325 326//326 327//327
f 328//328 329//329 330//330
f 331//331 332//332 333//333
f 334//334 335//335 336//336
f 337//337 338//338 339//339
f 340//340 341//341 342//342
f 343//343 344//344 345//345
f 346//346 347//347 348//348
f 349//349 350//350 351//351
f 352//352 353//353 354//354
f 355//355 356//356 357//357
f 358//358 359//359 360//360
f 361//361 362//362 363//363
f 364//364 365//365 366//366
f 367//367 368//368 369//369
f 370//370 371//371 372//372
f 373//373 374//374 375//375
f 376//376 377//377 378//378
f 379//379 380//380 381//381
f 382//382 383//383 384//384
f 385//385 386//386 387//387
f 388//388 389//389 390//390
f 391//391 392//392 393//393
f 394//394 395//395 396//396
f 397//397 398//398 399//399
f 400//400 401//401 402//402
f 403//403 404//404 405//405
f 406//406 407//407 408//408
f 409//409 410//410 411//411
f 412//412 413//413 414//414
f 415//415 416//416 417//417
f 418//418 419//419 420//420
f 421//421 422//422 423//423
f 424//424 425//425 426//426
f 427//427 428//428 429//429
f 430//430 431//431 432//432
f 433//433 434//434 435//435
f 436//436 437//437 438//438
f 439//439 440//440 441//441
f 442//442 443//443 444//444
f 445//445 446//446 447//447
f 448//448 449//449 450//450
f 451//451 452//452 453//453
f 454//454 455//455 456//456
f 457//457 458//458 459//459
f 460//460 461//461 462//462
f 463//463 464//464 465//465
f 466//466 467//467 468//468
f 469//469 470//470 471//471
f 472//472 473//473 474//474
f 475//475 476//476 477//477
f 478//478 479//479 480//480
f 481//481 482//482 483//483
f 484//484 485//485 486//486
f 487//487 488//488 489//489
f 490//490 491//491 492//492
f 493//493 494//494 495//495
f 496//496 497//497 498//498
f 499//499 500//500 501//501
f 502//502 503//503 504//504
usemtl canopy
f 505//505 506//506 507//507
f 508//508 509//509 510//510
f 511//511 512//512 513//513
f 514//514 515//515 516//516
f 517//517 518//518 519//519
f 520//520 521//521 522//522
f 523//523 524//524 525//525
f 526//526 527//527 528//528
f 529//529 530//530 531//531
f 532//532 533//533 534//534
f 535//535 536//536 537//537
f 538//538 539//539 540//540
f 541//541 542//542 543//543
f 544//544 545//545 546//546
f 547//547 548//548 549//549
f 550//550 551//551 552//552
f 553//553 554//554 555//555
f 556//556 557//557 558//558
f 559//559 560//560 561//561
f 562//562 563//563 564//564
f 565//565 566//566 567//567
f 568//568 569//569 570//570
f 571//571 572//572 573//573
f 574//574 575//575 576//576
f 577//577 578//578 579//579
f 580//580 581//581 582//582
f 583//583 584//584 585//585
f 586//586 587//587 588//588
f 589//589 590//590 591//591
f 592//592 593//593 594//594
f 595//595 596//596 597//597
f 598//598 599//599 600//600
f 601//601 602//602 603//603
f 604//604 605//605 606//606
f 607//607 608//608 609//609
f 610//610 611//611 612//612
f 613//613 614//614 615//615
f 616//616 617//617 618//618
f 619//619 620//620 621//621
f 622//622 623//623 624//624
f 625//625 626//626 627//627
f 628//628 629//629 630//630
f 631//631 632//632 633//633
f 634//634 635//635 636//636
f 637//637 638//638 639//639
f 640//640 641//641 642//642
f 643//643 644//644 645//645
f 646//646 647//647 648//648
f 649//649 650//650 651//651
f 652//652 653//653 654//654
f 655//655 656//656 657//657
f 658//658 659//659 660//660
f 661//661 662//662 663//663
f 664//664 665//665 666//666
f 667//667 668//668 669//669
f 670//670 671//671 672//672
f 673//673 674//674 675//675
f 676//676 677//677 678//678
f 679//679 680//680 681//681
f 682//682 683//683 684//684
f 685//685 686//686 687//687
f 688//688 689//689 690//690
f 691//691 692//692 693//693
f 694//694 695//695 696//696
f 697//697 698//698 699//699
f 700//700 701//701 702//702
f 703//703 704//704 705//705
f 706//706 707//707 708//708
f 709//709 710//710 711//711
f 712//712 713//713 714//714
f 715//715 716//716 717//717
f 718//718 719//719 720//720
f 721//721 722//722 723//723
f 724//724 725//725 726//726
f 727//727 728//728 729//729
f 730//730 731//731 732//732
f 733//733 734//734 735//735
f 736//736 737//737 738//738
f 739//739 740//740 741//741
f 742//742 743//743 744//744
f 745//745 746//746 747//747
f 748//748 749//749 750//750
f 751//751 752//752 753//753
f 754//754 755//755 756//756
f 757//757 758//758 759//759
f 760//760 761//761 762//762
f 763//763 764//764 765//765
f 766//766 767//767 768//768
f 769//769 770//770 771//771
f 772//772 773//773 774//774
f 775//775 776//776 777//777
f 778//778 779//779 780//780
f 781//781 782//782 783//783
f 784//784 785//785 786//786
f 787//787 788//788 789//789
f 790//790 791//791 792//792
f 793//793 794//794 795//795
f 796//796 797//797 798//798
f 799//799 800//800 801//801
f 802//802 803//803 804//804
f 805//805 806//806 807//807
f 808//808 809//809 810//810
f 811//811 812//812 813//813
f 814//814 815//815 816//816
f 817//817 818//818 819//819
f 820//820 821//821 822//822
f 823//823 824//824 825//825
f 826//826 827//827 828//828
f 829//829 830//830 831//831
f 832//832 833//833 834//834
f 835//835 836//836 837//837
f 838//838 839//839 840//840
f 841//841 842//842 843//843
f 844//844 845//845 846//846
f 847//847 848//848 849//849
f 850//850 851//851 852//852
f 853//853 854//854 855//855
f 856//856 857//857 858//858
f 859//859 860//860 861//861
f 862//862 863//863 864//864
f 865//865 866//866 867//867
f 868//868 869//869 870//870
f 871//871 872//872 873//873
f 874//874 875//875 876//876
f 877//877 878//878 879//879
f 880//880 881//881 882//882
f 883//883 884//884 885//885
f 886//886 887//887 888//888
f 889//889 890//890 891//891
f 892//892 893//893 894//894
f 895//895 896//896 897//897
f 898//898 899//899 900//900
f 901//901 902//902 903//903
f 904//904 905//905 906//906
f 907//907 908//908 909//909
f 910//910 911//911 912//912
f 913//913 914//914 915//915
f 916//916 917//917 918//918
f 919//919 920//920 921//921
f 922//922 923//923 924//924
usemtl trim
f 925//925 926//926 927//927
f 928//928 929//929 930//930
f 931//931 932//932 933//933
f 934//934 935//935 936//936
f 937//937 938//938 939//939
f 940//940 941//941 942//942
f 943//943 944//944 945//945
f 946//946 947//947 948//948
f 949//949 950//950 951//951
f 952//952 953//953 954//954
f 955//955 956//956 957//957
f 958//958 959//959 960//960
f 961//961 962//962 963//963
f 964//964 965//965 966//966
f 967//967 968//968 969//969
f 970//970 971//971 972//972
f 973//973 974//974 975//975
f 976//976 977//977 978//978
f 979//979 980//980 981//981
f 982//982 983//983 984//984
usemtl intakes
f 985//985 986//986 987//987
f 988//988 989//989 990//990
f 991//991 992//992 993//993
f 994//994 995//995 996//996
usemtl fuselage
f 997//997 998//998 999//999
f 1000//1000 1001//1001 1002//1002
f 1003//1003 1004//1004 1005//1005
f 1006//1006 1007//1007 1008//1008
f 1009//1009 1010//1010 1011//1011
f 1012//1012 1013//1013 1014//1014
usemtl intakes
f 1015//1015 1016//1016 1017//1017
f 1018//1018 1019//1019 1020//1020
f 1021//1021 1022//1022 1023//1023
f 1024//1024 1025//1025 1026//1026
usemtl fuselage
f 1027//1027 1028//1028 1029//1029
f 1030//1030 1031//1031 1032//1032
f 1033//1033 1034//1034 1035//1035
f 1036//1036 1037//1037 1038//1038
f 1039//1039 1040//1040 1041//1041
f 1042//1042 1043//1043 1044//1044
f 1045//1045 1046//1046 1047//1047
f 1048//1048 1049//1049 1050//1050
f 1051//1051 1052//1052 1053//1053
f 1054//1054 1055//1055 1056//1056
usemtl trim
f 1057//1057 1058//1058 1059//1059
f 1060//1060 1061//1061 1062//1062
f 1063//1063 1064//1064 1065//1065
f 1066//1066 1067//1067 1068//1068
f 1069//1069 1070//1070 1071//1071
f 1072//1072 1073//1073 1074//1074
usemtl fuselage
f 1075//1075 1076//1076 1077//1077
f 1078//1078 1079//1079 1080//1080
f 1081//1081 1082//1082 1083//1083
f 1084//1084 1085//1085 1086//1086
usemtl trim
f 1087//1087 1088//1088 1089//1089
f 1090//1090 1091//1091 1092//1092
f 1093//1093 1094//1094 1095//1095
f 1096//1096 1097//1097 1098//1098
f 1099//1099 1100//1100 1101//1101
f 1102//1102 1103//1103 1104//1104
usemtl fuselage
f 1105//1105 1106//1106 1107//1107
f 1108//1108 1109//1109 1110//1110
f 1111//1111 1112//1112 1113//1113
f 1114//1114 1115//1115 1116//1116
usemtl trim
f 1117//1117 1118//1118 1119//1119
f 1120//1120 1121//1121 1122//1122
f 1123//1123 1124//1124 1125//1125
f 1126//1126 1127//1127 1128//1128
f 1129//1129 1130//1130 1131//1131
f 1132//1132 1133//1133 1134//1134
usemtl fuselage
f 1135//1135 1136//1136 1137//1137
f 1138//1138 1139//1139 1140//1140
f 1141//1141 1142//1142 1143//1143
f 1144//1144 1145//1145 1146//1146
usemtl trim
f 1147//1147 1148//1148 1149//1149
f 1150//1150 1151//1151 1152//1152
f 1153//1153 1154//1154 1155//1155
f 1156//1156 1157//1157 1158//1158
f 1159//1159 1160//1160 1161//1161
f 1162//1162 1163//1163 1164//1164
usemtl fuselage
f 1165//1165 1166//1166 1167//1167
f 1168//1168 1169//1169 1170//1170
f 1171//1171 1172//1172 1173//1173
f 1174//1174 1175//1175 1176//1176
usemtl trim
f 1177//1177 1178//1178 1179//1179
f 1180//1180 1181//1181 1182//1182
f 1183//1183 1184//1184 1185//1185
f 1186//1186 1187//1187 1188//1188
f 1189//1189 1190//1190 1191//1191
usemtl fuselage
f 1192//1192 1193//1193 1194//1194
f 1195//1195 1196//1196 1197//1197
f 1198//1198 1199//1199 1200//1200
f 1201//1201 1202//1202 1203//1203
usemtl trim
f 1204//1204 1205//1205 1206//1206
f 1207//1207 1208//1208 1209//1209
f 1210//1210 1211//1211 1212//1212
f 1213//1213 1214//1214 1215//1215
f 1216//1216 1217//1217 1218//1218
f 1219//1219 1220//1220 1221//1221
usemtl nozzle
f 1222//1222 1223//1223 1224//1224
f 1225//1225 1226//1226 1227//1227
usemtl intakes
f 1228//1228 1229//1229 1230//1230
f 1231//1231 1232//1232 1233//1233
usemtl nozzle
f 1234//1234 1235//1235 1236//1236
f 1237//1237 1238//1238 1239//1239
usemtl intakes
f 1240//1240 1241//1241 1242//1242
f 1243//1243 1244//1244 1245//1245
usemtl nozzle
f 1246//1246 1247//1247 1248//1248
f 1249//1249 1250//1250 1251//1251
usemtl intakes
f 1252//1252 1253//1253 1254//1254
f 1255//1255 1256//1256 1257//1257
usemtl nozzle
f 1258//1258 1259//1259 1260//1260
f 1261//1261 1262//1262 1263//1263
usemtl intakes
f 1264//1264 1265//1265 1266//1266
f 1267//1267 1268//1268 1269//1269
usemtl nozzle
f 1270//1270 1271//1271 1272//1272
f 1273//1273 1274//1274 1275//1275
usemtl intakes
f 1276//1276 1277//1277 1278//1278
f 1279//1279 1280//1280 1281//1281
usemtl nozzle
f 1282//1282 1283//1283 1284//1284
f 1285//1285 1286//1286 1287//1287
usemtl intakes
f 1288//1288 1289//1289 1290//1290
f 1291//1291 1292//1292 1293//1293
usemtl nozzle
f 1294//1294 1295//1295 1296//1296
f 1297//1297 1298//1298 1299//1299
usemtl intakes
f 1300//1300 1301//1301 1302//1302
f 1303//1303 1304//1304 1305//1305
usemtl nozzle
f 1306//1306 1307//1307 1308//1308
f 1309//1309 1310//1310 1311//1311
usemtl intakes
f 1312//1312 1313//1313 1314//1314
f 1315//1315 1316//1316 1317//1317
usemtl nozzle
f 1318//1318 1319//1319 1320//1320
f 1321//1321 1322//1322 1323//1323
usemtl intakes
f 1324//1324 1325//1325 1326//1326
f 1327//1327 1328//1328 1329//1329
usemtl nozzle
f 1330//1330 1331//1331 1332//1332
f 1333//1333 1334//1334 1335//1335
usemtl intakes
f 1336//1336 1337//1337 1338//1338
f 1339//1339 1340//1340 1341//1341
usemtl nozzle
f 1342//1342 1343//1343 1344//1344
f 1345//1345 1346//1346 1347//1347
usemtl intakes
f 1348//1348 1349//1349 1350//1350
f 1351//1351 1352//1352 1353//1353
usemtl nozzle
f 1354//1354 1355//1355 1356//1356
f 1357//1357 1358//1358 1359//1359
usemtl intakes
f 1360//1360 1361//1361 1362//1362
f 1363//1363 1364//1364 1365//1365
usemtl nozzle
f 1366//1366 1367//1367 1368//1368
f 1369//1369 1370//1370 1371//1371
usemtl intakes
f 1372//1372 1373//1373 1374//1374
f 1375//1375 1376//1376 1377//1377
usemtl nozzle
f 1378//1378 1379//1379 1380//1380
f 1381//1381 1382//1382 1383//1383
usemtl intakes
f 1384//1384 1385//1385 1386//1386
f 1387//1387 1388//1388 1389//1389
usemtl nozzle
f 1390//1390 1391//1391 1392//1392
f 1393//1393 1394//1394 1395//1395
usemtl intakes
f 1396//1396 1397//1397 1398//1398
f 1399//1399 1400//1400 1401//1401
usemtl nozzle
f 1402//1402 1403//1403 1404//1404
f 1405//1405 1406//1406 1407//1407
usemtl intakes
f 1408//1408 1409//1409 1410//1410
f 1411//1411 1412//1412 1413//1413
usemtl nozzle
f 1414//1414 1415//1415 1416//1416
f 1417//1417 1418//1418 1419//1419
usemtl intakes
f 1420//1420 1421//1421 1422//1422
f 1423//1423 1424//1424 1425//1425
usemtl nozzle
f 1426//1426 1427//1427 1428//1428
f 1429//1429 1430//1430 1431//1431
usemtl intakes
f 1432//1432 1433//1433 1434//1434
f 1435//1435 1436//1436 1437//1437
f 1438//1438 1439//1439 1440//1440
f 1441//1441 1442//1442 1443//1443
f 1444//1444 1445//1445 1446//1446
f 1447//1447 1448//1448 1449//1449
f 1450//1450 1451//1451 1452//1452
f 1453//1453 1454//1454 1455//1455
f 1456//1456 1457//1457 1458//1458
f 1459//1459 1460//1460 1461//1461
f 1462//1462 1463//1463 1464//1464
f 1465//1465 1466//1466 1467//1467
f 1468//1468 1469//1469 1470//1470
f 1471//1471 1472//1472 1473//1473
f 1474//1474 1475//1475 1476//1476
f 1477//1477 1478//1478 1479//1479
f 1480//1480 1481//1481 1482//1482
f 1483//1483 1484//1484 1485//1485
f 1486//1486 1487//1487 1488//1488
f 1489//1489 1490//1490 1491//1491
usemtl fuselage
f 1492//1492 1493//1493 1494//1494
f 1495//1495 1496//1496 1497//1497
f 1498//1498 1499//1499 1500//1500
f 1501//1501 1502//1502 1503//1503
f 1504//1504 1505//1505 1506//1506
f 1507//1507 1508//1508 1509//1509
f 1510//1510 1511//1511 1512//1512
f 1513//1513 1514//1514 1515//1515
f 1516//1516 1517//1517 1518//1518
f 1519//1519 1520//1520 1521//1521
f 1522//1522 1523//1523 1524//1524
f 1525//1525 1526//1526 1527//1527
f 1528//1528 1529//1529 1530//1530
f 1531//1531 1532//1532 1533//1533
f 1534//1534 1535//1535 1536//1536
f 1537//1537 1538//1538 1539//1539
f 1540//1540 1541//1541 1542//1542
f 1543//1543 1544//1544 1545//1545
f 1546//1546 1547//1547 1548//1548
f 1549//1549 1550//1550 1551//1551
f 1552//1552 1553//1553 1554//1554
f 1555//1555 1556//1556 1557//1557
f 1558//1558 1559//1559 1560//1560
f 1561//1561 1562//1562 1563//1563
usemtl trim
f 1564//1564 1565//1565 1566//1566
f 1567//1567 1568//1568 1569//1569
f 1570//1570 1571//1571 1572//1572
f 1573//1573 1574//1574 1575//1575
